<svg viewBox="0 0 256 256" fill="currentColor" xmlns="http://www.w3.org/2000/svg">
    <g clip-path="url(#clip0_803_19)">
        <path
            d="M44.1003 1.03565C42.8836 1.47811 40.4501 3.46915 38.5697 5.4602L35.2512 8.88922L34.9194 73.0451L34.6982 137.09H27.1765C22.7519 137.09 19.1017 137.643 18.3274 138.418C17.3318 139.413 17 148.484 17 172.708V205.56L25.7385 212.197L34.4769 218.944L34.9194 233.324L35.2512 247.704L39.4546 251.797L43.5473 256H127.614H211.68L215.773 251.797L219.976 247.704L220.308 233.324L220.75 218.944L229.489 212.197L238.227 205.56V173.482C238.227 153.461 237.785 140.519 237.121 139.192C236.126 137.422 234.688 137.09 228.272 137.09H220.529V96.274V55.3469L195.752 28.3572C182.035 13.535 170.089 1.03565 169.094 0.593199C166.328 -0.402323 46.6444 -0.0704827 44.1003 1.03565ZM70.0945 72.9345V137.09H56.8209H43.5473V74.9255C43.5473 18.7338 43.7685 12.6501 45.4277 10.7697C46.9763 9.11045 48.9673 8.77861 58.7013 8.77861H70.0945V72.9345ZM188.783 34.1091C197.743 43.8431 205.043 52.0285 205.043 52.3604C205.043 52.8028 197.632 53.024 188.451 53.024H171.859V34.7728C171.859 24.707 171.97 16.5216 172.191 16.5216C172.412 16.5216 179.934 24.4857 188.783 34.1091ZM229.378 172.487V199.034H127.614H25.8491V172.487V145.939H127.614H229.378V172.487ZM70.0945 227.794V247.704H58.8119C42.9942 247.704 43.5473 248.478 43.5473 225.913V207.883H56.8209H70.0945V227.794Z" />
        <path
            d="M92.4383 153.351C86.4652 156.226 84.0317 160.872 83.5892 169.721C83.1468 178.902 85.2484 183.769 91.0003 187.641C100.513 194.056 117.658 187.309 116.331 177.796C115.778 173.703 111.685 173.814 109.915 178.017C108.367 181.668 103.832 184.654 99.96 184.654C98.6327 184.654 96.0886 183.216 94.3187 181.446C91.5534 178.57 91.111 177.354 91.111 171.712C91.111 163.416 93.8763 158.549 99.1857 157.554C103.942 156.669 107.15 158.218 109.362 162.642C111.464 166.624 115.778 166.845 116.331 162.863C117.548 154.457 102.504 148.373 92.4383 153.351Z" />
        <path
            d="M125.18 152.576C123.41 153.682 123.189 155.784 123.189 170.274C123.189 190.295 123.189 190.185 134.582 190.185C144.759 190.185 150.179 188.636 153.055 184.986C156.262 180.893 155.931 176.247 152.059 172.487C148.962 169.389 148.962 169.168 150.953 167.398C154.161 164.522 153.718 157.996 150.289 154.788C147.745 152.466 146.197 152.023 137.237 151.802C131.264 151.581 126.286 151.912 125.18 152.576ZM145.09 161.204C145.754 165.407 143.431 166.956 136.905 166.956H130.932V162.531V157.996L137.901 158.328C144.095 158.66 144.759 158.881 145.09 161.204ZM145.975 175.252C149.736 180.34 146.307 183.548 137.458 183.548H130.932V178.792C130.932 176.137 131.264 173.593 131.817 173.15C133.365 171.491 144.427 173.15 145.975 175.252Z" />
        <path
            d="M160.798 153.129C159.692 154.457 159.692 155.12 160.908 156.558C162.014 157.886 164.116 158.218 170.974 157.886C175.73 157.665 179.602 157.775 179.602 157.996C179.602 158.107 174.624 164.301 168.541 171.602C162.457 178.902 157.479 185.318 157.479 185.76C157.479 186.313 158.254 187.53 159.249 188.526C160.687 189.964 163.452 190.185 175.509 189.964C189.668 189.632 190.11 189.521 190.442 187.198C190.885 184.212 189.004 183.659 177.058 183.327L168.43 182.995L179.049 170.274C184.801 163.306 189.557 156.78 189.557 155.673C189.557 152.466 185.796 151.47 173.739 151.47C164.78 151.47 161.904 151.802 160.798 153.129Z" />
        <path
            d="M68.9884 184.101C66.7761 186.866 68.1035 189.632 71.7537 189.632C74.0766 189.632 75.1827 189.079 75.404 187.641C75.8464 185.318 73.8554 182.442 71.7537 182.442C70.9794 182.442 69.7627 183.216 68.9884 184.101Z" />
    </g>
    <defs>
        <clipPath id="clip0_803_19">
            <rect width="256" height="256" fill="white" />
        </clipPath>
    </defs>
</svg>