<svg viewBox="0 0 256 256" fill="currentColor" xmlns="http://www.w3.org/2000/svg">
	<path
		d="M33.5001 1.4C29.4001 3.2 25.2001 8.3 24.5001 12.3C24.2001 14.1 24.1001 67.3 24.2001 130.7C24.5001 245.2 24.5001 245.9 26.6001 248.6C27.7001 250.1 29.9001 252.3 31.4001 253.4C34.1001 255.5 34.8001 255.5 128 255.5C221.2 255.5 221.9 255.5 224.6 253.4C226.1 252.3 228.3 250.1 229.4 248.6C231.5 245.9 231.5 245.1 231.8 145.2L232 44.5L207.6 22.2L183.1 -3.80725e-06H109.8C51.1001 0.0999962 35.9001 0.299996 33.5001 1.4ZM172 36V56H194H216V148V240H128H40.0001V128V16H106H172V36ZM196.5 33.7L203.3 40H195.6H188V33.4C188 29.8 188.4 27 188.9 27.2C189.3 27.3 192.8 30.3 196.5 33.7Z" />
	<path
		d="M130 67.8999L102.5 74.5999L102.2 92.6999L102 110.8L98.1001 110.3C90.6001 109.3 83.1001 113.4 79.9001 120.4C77.4001 125.9 77.5001 130.6 80.3001 136C86.9001 149.2 105.1 149.2 111.8 136C113.9 131.8 114 130.5 114 107.9V84.1999L131.1 80.0999C140.5 77.7999 148.6 75.9999 149.1 75.9999C149.6 75.9999 150 81.9999 150 89.3999V102.8L146.1 102.3C138.6 101.3 131.1 105.4 127.9 112.4C125.4 117.9 125.5 122.6 128.3 128C134.9 141.2 153.1 141.2 159.8 128C161.9 123.7 162 122.7 162 92.2999V60.9999L159.8 61.0999C158.5 61.1999 145.1 64.1999 130 67.8999ZM148 116C149.1 117.1 150 118.9 150 120C150 121.1 149.1 122.9 148 124C146.9 125.1 145.1 126 144 126C142.9 126 141.1 125.1 140 124C138.9 122.9 138 121.1 138 120C138 118.9 138.9 117.1 140 116C141.1 114.9 142.9 114 144 114C145.1 114 146.9 114.9 148 116ZM100 124C101.1 125.1 102 126.9 102 128C102 129.1 101.1 130.9 100 132C98.9001 133.1 97.1001 134 96.0001 134C94.9001 134 93.1001 133.1 92.0001 132C90.9001 130.9 90.0001 129.1 90.0001 128C90.0001 126.9 90.9001 125.1 92.0001 124C93.1001 122.9 94.9001 122 96.0001 122C97.1001 122 98.9001 122.9 100 124Z" />
	<path
		d="M163.5 169.9C161.3 170.9 158.9 172.4 158.1 173.4C156.9 174.9 157 175.4 159.4 177.9L162.2 180.8L165.7 178.4C167.7 177.1 170 176 170.9 176C173.4 176 177 178.9 177 180.9C177 183.4 173.8 186 170.8 186C166.1 186 165 187 165 191V194.7L170.1 195.2C175.9 195.8 178.3 197.6 178.3 201.6C178.3 208.1 169 210 164.2 204.5L162 201.9L158.5 204C156.6 205.2 155 206.5 155 206.9C155 208.4 160.6 212.9 164.2 214.4C172 217.7 182.1 215.1 186 208.8C189 204.1 188.3 197 184.5 193L181.8 190.1L183.9 187.4C186.8 183.8 186.7 177.2 183.8 173.5C179.5 168 170.9 166.5 163.5 169.9Z" />
	<path
		d="M68 192V215H72.5H77L77.1 200.2V185.5L81.3 200L85.6 214.5L89.5 214.8L93.5 215.1L97.7 200.3L101.8 185.5L101.9 200.2L102 215H106.5H111V192V168.9L104.3 169.2L97.5 169.5L93.8 182.7C91.8 190 90 196.5 89.8 197.2C89.6 197.8 87.6 191.8 85.4 183.7L81.5 169H74.8H68V192Z" />
	<path
		d="M119 192V215H124H129V206V197H135.3C146.5 197 152.5 191.9 152.4 182.7C152.3 172 147.6 169 130.6 169H119V192ZM141 179C145.6 183.6 142.4 188 134.4 188H129V182.5V177H134C137.7 177 139.5 177.5 141 179Z" />
</svg>