<svg viewBox="0 0 256 256" fill="currentColor" xmlns="http://www.w3.org/2000/svg">
    <path
        d="M75.4099 164.703C75.4099 160.451 72.4599 157.916 67.2548 157.916C65.1294 157.916 63.6899 158.126 62.937 158.326V171.967C63.8285 172.167 64.9244 172.234 66.435 172.234C71.9831 172.234 75.4099 169.431 75.4099 164.703Z" />
    <path
        d="M107.632 158.059C105.301 158.059 103.794 158.26 102.903 158.469V188.678C103.795 188.888 105.234 188.888 106.536 188.888C115.992 188.954 122.159 183.749 122.159 172.72C122.226 163.129 116.606 158.059 107.632 158.059Z" />
    <path
        d="M167.498 0H64.6776C49.6565 0 37.431 12.234 37.431 27.2465V127.999H34.7698C28.7073 127.999 23.7905 132.911 23.7905 138.979V205.565C23.7905 211.632 28.7067 216.543 34.7698 216.543H37.431V228.753C37.431 243.782 49.6565 255.999 64.6776 255.999H204.971C219.983 255.999 232.21 243.781 232.21 228.753V64.4853L167.498 0ZM52.5938 150.996C55.8115 150.452 60.3343 150.042 66.7064 150.042C73.146 150.042 77.7356 151.271 80.8195 153.74C83.7653 156.067 85.7532 159.907 85.7532 164.427C85.7532 168.945 84.2469 172.787 81.506 175.389C77.9411 178.745 72.6691 180.251 66.502 180.251C65.1294 180.251 63.8992 180.183 62.9371 180.05V196.561H52.5938V150.996ZM204.971 239.313H64.6776C58.8614 239.313 54.1252 234.577 54.1252 228.753V216.543H184.907C190.971 216.543 195.887 211.632 195.887 205.565V138.979C195.887 132.911 190.971 127.999 184.907 127.999H54.1252V27.2465C54.1252 21.4388 58.8619 16.7026 64.6776 16.7026L161.255 16.6017V52.3002C161.255 62.7273 169.715 71.1957 180.15 71.1957L215.121 71.0953L215.514 228.752C215.514 234.577 210.787 239.313 204.971 239.313ZM92.4227 196.352V150.996C96.2589 150.385 101.259 150.042 106.536 150.042C115.305 150.042 120.992 151.615 125.448 154.97C130.243 158.535 133.255 164.218 133.255 172.376C133.255 181.213 130.037 187.314 125.581 191.079C120.719 195.12 113.318 197.037 104.276 197.037C98.8612 197.037 95.0249 196.694 92.4227 196.352ZM167.197 169.498V177.992H150.615V196.561H140.134V150.385H168.36V158.945H150.615V169.498H167.197Z" />
</svg>