<svg viewBox="0 0 20 20" fill="currentColor" xmlns="http://www.w3.org/2000/svg">
  <path
    d="M4.192 4.144C3.096 4.776 1.776 5.536 1.248 5.84C0.616 6.208 0.256 6.464 0.152 6.632C0.00800001 6.864 0 7.08 0 10.288C0 13.688 0 13.696 0.176 13.96C0.312 14.152 1.08 14.64 3.2 15.872C5.88 17.424 6.064 17.52 6.44 17.512C6.808 17.512 7.016 17.408 9.30398 16.08C11.552 14.776 12.016 14.44 11.616 14.44C11.536 14.44 10.416 15.056 9.12 15.808C7.82398 16.56 6.648 17.192 6.512 17.216C6.304 17.248 5.952 17.072 4.152 16.04C0.84 14.128 0.576 13.968 0.44 13.776C0.336 13.632 0.32 13.128 0.32 10.264V6.928L0.504 6.736C0.648 6.576 5.088 3.952 6.056 3.448C6.424 3.264 6.536 3.28 7.2 3.664C11.088 5.928 11.616 6.216 11.704 6.128C11.768 6.064 11.76 6.008 11.68 5.928C11.536 5.784 7.176 3.256 6.824 3.112C6.68 3.048 6.48 3 6.376 3C6.272 3 5.288 3.512 4.192 4.144Z"
  />
  <path
    d="M5.67999 8.83199L5.39999 8.87999V10.28V11.68L5.58399 11.704C5.89599 11.752 6.01599 11.576 5.99199 11.1279L5.96799 10.72L6.48799 10.68C7.28799 10.616 7.59999 10.336 7.59999 9.67999C7.59999 8.99999 6.77599 8.63999 5.67999 8.83199ZM6.75999 9.33599C7.02399 9.45599 7.09599 9.74399 6.92799 9.99999C6.78399 10.216 6.53599 10.304 6.19999 10.264C5.98399 10.24 5.97599 10.224 5.98399 9.77599C5.98399 9.52799 5.99199 9.30399 5.99199 9.27999C6.00799 9.19999 6.55199 9.23999 6.75999 9.33599Z"
  />
  <path
    d="M11.4 8.83196C10.512 9.06396 10.072 9.83996 10.312 10.736C10.424 11.144 10.912 11.6079 11.32 11.6879C11.704 11.76 12.616 11.696 12.728 11.584C12.824 11.4879 12.848 10.184 12.76 10.048C12.68 9.91196 11.64 9.93596 11.52 10.08C11.36 10.272 11.56 10.44 11.936 10.44H12.248L12.224 10.856C12.2 11.272 12.192 11.28 11.944 11.304C11.344 11.36 10.88 10.904 10.88 10.24C10.88 9.55996 11.32 9.19996 12.096 9.25596C12.608 9.29596 12.784 9.19996 12.616 8.97596C12.504 8.82396 11.768 8.73596 11.4 8.83196Z"
  />
  <path
    d="M8.58399 8.90395C8.46399 8.97595 7.54401 11.5039 7.58401 11.632C7.62401 11.76 7.96798 11.7439 8.10399 11.6C8.17602 11.536 8.24798 11.376 8.28001 11.24C8.32798 11 8.34399 11 8.84798 11C9.33602 11 9.36798 11.0079 9.44001 11.216C9.48798 11.3439 9.55204 11.496 9.59204 11.56C9.68001 11.72 10.072 11.76 10.128 11.616C10.168 11.496 9.33602 9.12795 9.19204 8.94395C9.09602 8.83195 8.73602 8.80795 8.58399 8.90395ZM9.05602 9.94395C9.25602 10.592 9.25602 10.6 8.83204 10.6C8.56001 10.6 8.47204 10.576 8.50399 10.496C8.52798 10.44 8.60798 10.1679 8.68001 9.89595C8.76001 9.61595 8.84001 9.41595 8.86399 9.43995C8.88798 9.46395 8.97602 9.68795 9.05602 9.94395Z"
  />
  <path
    d="M13.64 8.93598C13.616 8.99997 13.608 9.63997 13.616 10.36L13.64 11.68H13.92H14.2V10.28V8.87998L13.936 8.85598C13.776 8.83998 13.664 8.87198 13.64 8.93598Z"
  />
  <path
    d="M15.096 8.88795C15 8.98395 15.032 11.6239 15.1279 11.68C15.1679 11.712 15.296 11.712 15.4 11.6879C15.592 11.64 15.592 11.616 15.616 10.7359L15.64 9.83995L16.2 10.76C16.744 11.6479 16.7679 11.68 17.04 11.68H17.32V10.2799V8.87995H17.08H16.84L16.816 9.77595C16.8079 10.2719 16.7679 10.6799 16.736 10.6799C16.704 10.6719 16.4479 10.2719 16.16 9.77595C15.696 8.97595 15.6079 8.87995 15.392 8.85595C15.264 8.83995 15.1279 8.85595 15.096 8.88795Z"
  />
  <path
    d="M18.12 8.91197C18.072 8.95997 18.056 9.53596 18.08 10.336L18.12 11.68H19.04C19.8721 11.68 19.96 11.6639 19.984 11.5279C20.0321 11.3039 19.864 11.24 19.224 11.24H18.64V10.84V10.448L19.208 10.424C19.656 10.408 19.8 10.368 19.8721 10.256C20 10.048 19.8081 9.95996 19.184 9.95996H18.64V9.63996V9.31996H19.232C19.8481 9.31996 20.064 9.21597 19.9681 8.95997C19.936 8.86397 19.76 8.83997 19.056 8.83997C18.584 8.83997 18.16 8.87197 18.12 8.91197Z"
  />
  <path
    d="M3.224 9.83195C2.648 10.096 2.536 11.056 3.032 11.496C3.272 11.712 3.328 11.7279 3.864 11.7039C4.376 11.68 4.44 11.6639 4.44 11.52C4.44 11.376 4.392 11.36 4.024 11.3839C3.696 11.4079 3.584 11.3839 3.448 11.2479C3.176 10.976 3.24 10.92 3.864 10.92C4.176 10.92 4.488 10.8879 4.552 10.8479C4.712 10.744 4.608 10.216 4.384 9.98395C4.144 9.75195 3.576 9.67195 3.224 9.83195ZM3.984 10.216C4.192 10.424 4.088 10.52 3.68 10.52C3.248 10.52 3.24 10.512 3.36 10.272C3.456 10.096 3.832 10.064 3.984 10.216Z"
  />
</svg>
