<svg viewBox="0 0 512 512" fill="none" xmlns="http://www.w3.org/2000/svg">
  <path
    d="M141.785 316.745L157.231 214.062C157.354 213.242 157.711 212.475 158.256 211.852C158.802 211.228 159.515 210.774 160.31 210.543L191.181 201.593C191.646 201.458 192.138 201.443 192.612 201.548C193.085 201.653 193.523 201.875 193.888 202.194C194.253 202.513 194.532 202.919 194.698 203.374C194.865 203.829 194.914 204.318 194.843 204.797L179.394 307.79C178.797 312.765 180.786 314.754 185.562 314.754C187.13 314.743 188.694 314.599 190.238 314.328C190.721 314.244 191.218 314.275 191.687 314.42C192.156 314.564 192.584 314.818 192.936 315.16C193.287 315.502 193.554 315.923 193.711 316.388C193.869 316.853 193.914 317.349 193.843 317.834L190.656 338.983C190.501 340.002 190.043 340.952 189.342 341.708C188.64 342.463 187.728 342.991 186.722 343.22C181.462 344.532 176.061 345.196 170.639 345.199C149.148 345.199 139 335.25 141.785 316.745ZM330.712 316.745L346.158 214.062C346.282 213.242 346.637 212.475 347.183 211.852C347.729 211.228 348.442 210.774 349.237 210.543L380.108 201.593C380.573 201.458 381.065 201.443 381.538 201.548C382.012 201.653 382.451 201.875 382.815 202.194C383.18 202.513 383.458 202.919 383.625 203.374C383.792 203.829 383.842 204.318 383.77 204.797L368.321 307.79C367.724 312.765 369.714 314.754 374.489 314.754C376.057 314.743 377.621 314.599 379.165 314.328C379.648 314.244 380.145 314.275 380.614 314.42C381.083 314.564 381.511 314.818 381.863 315.16C382.215 315.502 382.481 315.923 382.638 316.388C382.796 316.853 382.841 317.349 382.77 317.834L379.583 338.983C379.429 340.002 378.971 340.952 378.27 341.708C377.568 342.463 376.655 342.991 375.649 343.22C370.389 344.532 364.988 345.196 359.565 345.199C338.075 345.199 327.927 335.25 330.712 316.745ZM322.842 317.782L319.755 339.238C319.618 340.182 319.198 341.062 318.55 341.761C317.903 342.461 317.058 342.948 316.128 343.158C310.783 344.471 305.302 345.156 299.798 345.199C285.869 345.199 277.113 340.622 273.532 332.862C265.174 340.224 252.637 345.199 238.908 345.199C213.04 345.199 198.714 327.888 202.494 302.417L210.858 245.766C210.967 245.031 211.336 244.358 211.899 243.873C212.462 243.386 213.181 243.119 213.925 243.119H243.872C244.317 243.119 244.758 243.215 245.162 243.401C245.568 243.586 245.928 243.856 246.219 244.193C246.51 244.531 246.725 244.926 246.849 245.354C246.974 245.782 247.004 246.232 246.939 246.672L239.704 295.651C237.912 307.193 242.888 314.357 253.633 314.357C264.577 314.357 272.337 307.591 273.929 296.248L281.493 245.76C281.603 245.026 281.973 244.355 282.536 243.871C283.098 243.385 283.816 243.119 284.559 243.119H314.513C314.958 243.119 315.398 243.215 315.804 243.401C316.208 243.586 316.569 243.856 316.86 244.193C317.151 244.531 317.366 244.926 317.49 245.354C317.614 245.782 317.645 246.232 317.58 246.672L308.554 307.79C307.757 312.566 309.747 314.754 314.721 314.754C316.222 314.745 317.717 314.592 319.188 314.298C319.673 314.207 320.172 314.232 320.645 314.372C321.118 314.511 321.552 314.762 321.909 315.102C322.266 315.443 322.537 315.864 322.698 316.33C322.861 316.796 322.91 317.293 322.842 317.782ZM511.967 317.782L508.725 340.327C508.633 340.948 508.357 341.527 507.931 341.988C507.505 342.45 506.949 342.772 506.336 342.911C500.646 344.372 494.799 345.141 488.924 345.199C474.995 345.199 466.24 340.622 462.659 332.862C454.301 340.224 441.764 345.199 428.034 345.199C402.167 345.199 387.839 327.888 391.62 302.417L399.984 245.766C400.092 245.031 400.462 244.358 401.025 243.873C401.588 243.386 402.307 243.119 403.052 243.119H432.999C433.444 243.119 433.884 243.215 434.289 243.401C434.694 243.586 435.054 243.856 435.346 244.193C435.636 244.531 435.851 244.926 435.975 245.354C436.1 245.782 436.13 246.232 436.065 246.672L428.831 295.651C427.039 307.193 432.014 314.357 442.759 314.357C453.704 314.357 461.464 307.591 463.055 296.248L470.619 245.76C470.729 245.026 471.1 244.355 471.662 243.871C472.225 243.385 472.943 243.119 473.685 243.119H503.639C504.085 243.119 504.525 243.215 504.93 243.401C505.335 243.586 505.695 243.856 505.986 244.193C506.277 244.531 506.492 244.926 506.617 245.354C506.741 245.782 506.772 246.232 506.706 246.672L497.68 307.79C496.884 312.566 498.874 314.754 503.848 314.754C505.347 314.745 506.843 314.592 508.314 314.298C508.799 314.207 509.299 314.232 509.772 314.372C510.245 314.511 510.678 314.762 511.035 315.102C511.392 315.443 511.663 315.864 511.825 316.33C511.988 316.796 512.036 317.293 511.967 317.782Z"
    fill="#9CA3AF"
  />
  <path
    d="M100.904 343.994C85.8432 306.325 38.0394 295.631 28.6641 293.874C28.2346 293.794 27.8527 293.55 27.5993 293.194C27.3457 292.838 27.2404 292.398 27.3053 291.966L40.8683 201.958C33.2922 201.176 25.6708 200.924 18.0596 201.203C17.6733 201.225 17.3064 201.379 17.0208 201.64C16.7352 201.901 16.5485 202.253 16.4918 202.635L0.0195697 311.95C-0.0178063 312.194 -0.00152516 312.442 0.06739 312.677C0.136305 312.913 0.256114 313.131 0.418316 313.315C0.580517 313.501 0.781221 313.647 1.0063 313.745C1.23137 313.844 1.47529 313.892 1.72095 313.887C13.6491 313.596 75.4099 313.578 93.3675 343.528C93.7474 344.174 94.3311 344.675 95.0264 344.954C95.7227 345.232 96.4907 345.272 97.2116 345.066L100.904 343.994Z"
    fill="url(#paint0_linear)"
  />
  <path
    d="M107.5 340.038C103.759 315.994 75.4977 290.461 75.4977 290.461C67.0585 280.191 74.1274 265.927 77.5785 260.239C77.7269 259.993 77.8109 259.714 77.8211 259.426C77.8314 259.139 77.7679 258.855 77.6358 258.599C77.5047 258.344 77.3102 258.126 77.0705 257.967C76.8309 257.808 76.5547 257.714 76.2681 257.693C70.895 257.278 60.0321 254.903 60.0361 242.491C60.0478 241.428 60.1385 240.368 60.3076 239.32L65.4018 205.411V205.411L65.395 205.41C60.1257 204.408 54.8668 203.588 49.7958 202.942L49.7346 202.934C46.6993 202.548 43.7342 202.223 40.8758 201.959L40.8683 201.958L27.3053 291.966C27.2404 292.398 27.3457 292.838 27.5993 293.194C27.8527 293.55 28.2346 293.794 28.6641 293.874C38.0394 295.631 85.8432 306.325 100.904 343.994L105.113 342.772C105.731 342.591 106.285 342.239 106.709 341.755C107.133 341.269 107.41 340.674 107.506 340.038L108.071 336.283C107.7 338.725 107.5 340.038 107.5 340.038Z"
    fill="url(#paint1_linear)"
  />
  <path
    d="M49.7346 202.934L49.7958 202.942C54.8668 203.588 60.1257 204.408 65.395 205.41L65.4018 205.411L68.5975 184.141C61.0305 182.277 53.2897 181.208 45.5008 180.951C45.0939 180.945 44.699 181.088 44.3893 181.352C44.0797 181.616 43.8765 181.983 43.8177 182.386L40.8683 201.958L40.8759 201.959C43.7343 202.223 46.6995 202.548 49.7346 202.934Z"
    fill="#CFD7E4"
  />
  <path
    d="M122.335 241.619C125.313 222.601 95.2384 211.086 65.4018 205.411L60.3076 239.32C60.1385 240.368 60.0478 241.428 60.0361 242.491C60.0322 254.903 70.895 257.278 76.2681 257.693C76.5547 257.714 76.8309 257.808 77.0706 257.967C77.3102 258.126 77.5047 258.344 77.6368 258.599C77.7679 258.855 77.8314 259.139 77.8211 259.426C77.8109 259.714 77.7269 259.994 77.5785 260.239C74.1274 265.927 67.0585 280.191 75.4978 290.461C75.4978 290.461 103.759 315.994 107.5 340.038C107.5 340.038 114.705 292.742 123.315 235.122L122.335 241.619Z"
    fill="url(#paint2_linear)"
  />
  <path
    d="M123.316 235.114C131.034 183.462 83.1849 168.581 73.1847 166.052C72.9566 165.994 72.7191 165.984 72.4872 166.024C72.2553 166.064 72.0344 166.152 71.8386 166.282C71.6428 166.413 71.4765 166.583 71.3506 166.781C71.2246 166.98 71.1417 167.203 71.1072 167.436L68.5975 184.141C96.4119 190.784 127.409 207.766 123.316 235.114Z"
    fill="url(#paint3_linear)"
  />
  <path
    d="M68.5975 184.141L65.4018 205.411V205.411C95.2384 211.086 125.313 222.601 122.335 241.62L123.316 235.114C127.409 207.766 96.4119 190.785 68.5975 184.141Z"
    fill="url(#paint4_linear)"
  />
  <defs>
    <linearGradient
      id="paint0_linear"
      x1="55.8913"
      y1="339.041"
      x2="-1.62866"
      y2="206.367"
      gradientUnits="userSpaceOnUse"
    >
      <stop stop-color="#9CA3AF" />
      <stop offset="1" stop-color="#CFD7E4" />
    </linearGradient>
    <linearGradient
      id="paint1_linear"
      x1="89.1425"
      y1="350.516"
      x2="27.2922"
      y2="203.787"
      gradientUnits="userSpaceOnUse"
    >
      <stop stop-color="#9CA3AF" />
      <stop offset="0.08408" stop-color="#9294A0" />
      <stop offset="0.25492" stop-color="#ADB5C4" />
      <stop offset="0.42293" stop-color="#BDC8D3" />
      <stop offset="0.58458" stop-color="#D1DCE2" />
      <stop offset="0.73819" stop-color="#E0E7EB" />
      <stop offset="0.88033" stop-color="#E4EDF0" />
      <stop offset="1" stop-color="#DEF0F7" />
    </linearGradient>
    <linearGradient
      id="paint2_linear"
      x1="146.864"
      y1="321.115"
      x2="48.9249"
      y2="214.014"
      gradientUnits="userSpaceOnUse"
    >
      <stop stop-color="#9BA4AC" />
      <stop offset="0.03759" stop-color="#B4BBC2" />
      <stop offset="0.3881" stop-color="#BDC5CA" />
      <stop offset="0.458333" stop-color="#ADB9C0" />
      <stop offset="0.66581" stop-color="#B4C3CA" />
      <stop offset="0.83453" stop-color="#CFD7E4" />
    </linearGradient>
    <linearGradient
      id="paint3_linear"
      x1="124.154"
      y1="200.557"
      x2="68.5975"
      y2="200.557"
      gradientUnits="userSpaceOnUse"
    >
      <stop stop-color="#CFD7E4" />
      <stop offset="0.04624" stop-color="#DCE0E1" />
      <stop offset="0.20514" stop-color="#E2EAED" />
      <stop offset="0.42511" stop-color="#DDE7EB" />
      <stop offset="1" stop-color="#CFD7E4" />
    </linearGradient>
    <linearGradient
      id="paint4_linear"
      x1="65.4018"
      y1="212.88"
      x2="123.682"
      y2="212.88"
      gradientUnits="userSpaceOnUse"
    >
      <stop stop-color="#AEB9BE" />
      <stop offset="0.3969" stop-color="#C1CFD5" />
      <stop offset="0.890625" stop-color="#D5E1E6" />
      <stop offset="0.96322" stop-color="#D7DFE2" />
      <stop offset="1" stop-color="#F3F8FA" />
    </linearGradient>
  </defs>
</svg>
