<svg width="512" height="148" viewBox="0 0 512 148" fill="none" xmlns="http://www.w3.org/2000/svg">
<g clip-path="url(#clip0_2_123)">
<path fill-rule="evenodd" clip-rule="evenodd" d="M195.075 34.103V100.857H219.401V112.372H182.124V34.103H195.075ZM265.12 67.31V60.27H277.393V112.372H265.117V105.326C263.468 107.935 261.12 109.986 258.077 111.476C255.04 112.965 251.98 113.71 248.902 113.71C244.922 113.71 241.28 112.983 237.978 111.531C234.764 110.141 231.869 108.105 229.475 105.55C227.108 103.013 225.237 100.054 223.959 96.828C222.632 93.484 221.962 89.916 221.987 86.318C221.987 82.667 222.644 79.182 223.959 75.863C225.229 72.617 227.1 69.64 229.475 67.089C231.87 64.533 234.764 62.496 237.978 61.105C241.28 59.65 244.922 58.923 248.902 58.923C251.98 58.923 255.04 59.671 258.08 61.163C261.12 62.652 263.468 64.703 265.12 67.31ZM263.991 92.692C264.747 90.653 265.129 88.495 265.12 86.321C265.12 84.081 264.742 81.957 263.991 79.944C263.286 78.008 262.217 76.224 260.841 74.69C259.464 73.182 257.798 71.965 255.942 71.112C254.025 70.219 251.904 69.771 249.577 69.771C247.249 69.771 245.146 70.219 243.27 71.112C241.393 72.008 239.779 73.201 238.429 74.69C237.056 76.217 236.004 78.003 235.334 79.944C234.613 81.991 234.251 84.147 234.263 86.318C234.263 88.555 234.618 90.681 235.334 92.689C236.003 94.631 237.056 96.418 238.429 97.945C239.791 99.445 241.436 100.661 243.27 101.524C245.146 102.42 247.249 102.865 249.577 102.865C251.904 102.865 254.028 102.42 255.942 101.527C257.798 100.674 259.464 99.458 260.841 97.948C262.217 96.414 263.287 94.629 263.991 92.692ZM287.078 112.369V60.267H320.413V72.258H299.351V112.369H287.078ZM364.896 67.31V60.27H377.169V112.372H364.893V105.326C363.241 107.935 360.896 109.986 357.853 111.476C354.816 112.965 351.756 113.71 348.678 113.71C344.695 113.71 341.056 112.983 337.754 111.531C334.54 110.141 331.645 108.105 329.251 105.55C326.884 103.013 325.013 100.054 323.735 96.828C322.408 93.484 321.738 89.916 321.763 86.318C321.763 82.667 322.417 79.182 323.735 75.863C325.005 72.617 326.876 69.64 329.251 67.089C331.646 64.533 334.54 62.496 337.754 61.105C341.056 59.65 344.695 58.923 348.678 58.923C351.756 58.923 354.816 59.671 357.856 61.163C360.896 62.652 363.241 64.703 364.896 67.31ZM363.767 92.692C364.522 90.653 364.903 88.495 364.893 86.321C364.893 84.081 364.515 81.957 363.767 79.944C363.061 78.007 361.991 76.224 360.614 74.69C359.237 73.182 357.571 71.965 355.715 71.112C353.801 70.219 351.68 69.771 349.353 69.771C347.025 69.771 344.922 70.219 343.046 71.112C341.169 72.008 339.555 73.201 338.205 74.69C336.831 76.217 335.778 78.003 335.107 79.944C334.386 81.991 334.024 84.147 334.036 86.318C334.036 88.555 334.391 90.681 335.107 92.689C335.777 94.631 336.831 96.418 338.205 97.945C339.567 99.445 341.212 100.661 343.046 101.524C344.922 102.42 347.025 102.865 349.353 102.865C351.68 102.865 353.804 102.42 355.715 101.527C357.571 100.674 359.237 99.458 360.614 97.948C361.991 96.414 363.062 94.629 363.767 92.692ZM426.38 60.267H438.813L418.665 112.369H403.241L383.092 60.267H395.526L410.953 100.165L426.38 60.267ZM465.583 58.929C482.298 58.929 493.696 73.634 491.555 90.847H450.833C450.833 95.342 455.404 104.031 466.257 104.031C475.596 104.031 481.85 95.877 481.856 95.871L490.147 102.242C482.735 110.103 476.663 113.713 467.156 113.713C450.167 113.713 438.656 103.042 438.656 86.321C438.656 71.193 450.554 58.929 465.583 58.929ZM450.865 81.791H480.282C480.192 80.788 478.598 68.607 465.487 68.607C452.375 68.607 450.961 80.788 450.865 81.791ZM499.549 112.369V34.103H511.825V112.369H499.549ZM144.768 33.492C144.822 33.689 144.849 33.892 144.849 34.097V65.876C144.849 66.284 144.74 66.686 144.534 67.039C144.328 67.392 144.033 67.684 143.677 67.886L116.815 83.243V113.681C116.813 114.089 116.704 114.49 116.498 114.842C116.293 115.195 115.997 115.486 115.642 115.688L59.5724 147.743C59.4444 147.819 59.3018 147.863 59.1651 147.912C59.1098 147.929 59.0604 147.961 59.008 147.976C58.6151 148.079 58.2023 148.079 57.8095 147.976C57.7455 147.959 57.6873 147.924 57.6262 147.9C57.4953 147.857 57.3644 147.813 57.2422 147.743L1.16945 115.694C0.814136 115.491 0.518753 115.198 0.313343 114.845C0.107932 114.491 -0.000179455 114.09 2.23601e-07 113.681V18.344C0.000462017 18.14 0.0278492 17.936 0.0814548 17.739C0.0989093 17.669 0.139637 17.608 0.162909 17.544C0.209455 17.422 0.250182 17.297 0.314182 17.183C0.357818 17.108 0.421818 17.047 0.471273 16.98C0.541091 16.887 0.599273 16.788 0.680727 16.706C0.747637 16.639 0.834909 16.59 0.910546 16.532C0.994909 16.468 1.07055 16.392 1.16655 16.337L1.16945 16.334L29.2073 0.307999C29.562 0.105999 29.963 0 30.3709 0C30.7789 0 31.1798 0.105999 31.5345 0.307999L59.5724 16.334H59.5782C59.6713 16.392 59.7469 16.468 59.8342 16.532C59.9098 16.59 59.9942 16.639 60.0611 16.706C60.1425 16.788 60.2007 16.887 60.2705 16.977C60.3229 17.047 60.3869 17.108 60.4305 17.183C60.4945 17.297 60.5353 17.422 60.5818 17.544C60.6051 17.608 60.6429 17.669 60.6633 17.739C60.7159 17.936 60.7423 18.14 60.7418 18.344V77.89L84.1076 64.535V34.097C84.1072 33.892 84.1336 33.689 84.1862 33.492C84.2065 33.422 84.2444 33.364 84.2705 33.297C84.3142 33.175 84.3549 33.049 84.4189 32.936C84.4625 32.86 84.5265 32.799 84.5789 32.732C84.6487 32.639 84.7069 32.54 84.7884 32.462C84.8553 32.395 84.9396 32.345 85.0153 32.287C85.1026 32.22 85.1782 32.142 85.2742 32.089V32.087L113.312 16.06C113.667 15.858 114.068 15.751 114.477 15.751C114.886 15.751 115.287 15.858 115.642 16.06L143.677 32.087H143.68C143.779 32.145 143.855 32.22 143.942 32.284C144.015 32.343 144.102 32.395 144.169 32.459C144.25 32.54 144.308 32.639 144.375 32.729C144.428 32.799 144.492 32.86 144.535 32.936C144.602 33.049 144.64 33.175 144.687 33.297C144.713 33.364 144.751 33.422 144.768 33.492ZM140.177 64.535V38.108L130.365 43.717L116.815 51.464V77.89L140.175 64.535H140.177ZM112.143 112.34V85.896L98.8073 93.454L60.7418 115.025V141.716L112.143 112.334V112.34ZM4.672 22.356V112.34L56.0698 141.721V115.033L29.2189 99.947L29.2131 99.938L29.2015 99.935C29.1084 99.883 29.0356 99.807 28.9513 99.743C28.8756 99.685 28.7942 99.639 28.7273 99.575L28.7215 99.566C28.6458 99.493 28.5935 99.403 28.5295 99.321C28.4713 99.246 28.4015 99.179 28.3549 99.097L28.352 99.089C28.2996 99.001 28.2676 98.897 28.2298 98.798C28.192 98.713 28.1425 98.632 28.1193 98.539V98.536C28.0873 98.425 28.0844 98.309 28.0698 98.196C28.0611 98.108 28.0349 98.024 28.0349 97.934V35.708L14.4873 27.964L4.672 22.356ZM30.3709 4.994L7.01964 18.347L30.3709 31.694L53.7251 18.344L30.3709 4.994ZM42.5193 88.305L56.0698 80.561V22.356L46.2604 27.964L32.7069 35.711V93.913L42.5193 88.305ZM114.479 20.75L91.1244 34.097L114.479 47.447L137.83 34.097L114.479 20.75ZM112.143 51.464L98.5891 43.717L88.7796 38.108V64.535L102.33 72.281L112.143 77.89V51.461V51.464ZM58.4029 111.013L92.6575 91.598L109.78 81.893L86.4436 68.552L59.5724 83.912L35.0836 97.911L58.4029 111.013Z" fill="#FF2D20"/>
</g>
<defs>
<clipPath id="clip0_2_123">
<rect width="512" height="148" fill="white"/>
</clipPath>
</defs>
</svg>