<svg width="512" height="63" viewBox="0 0 512 63" fill="none" xmlns="http://www.w3.org/2000/svg">
<path d="M53 0C38.8667 0 30.0333 7 26.5 21C31.8 14 37.9833 11.375 45.05 13.125C49.0819 14.1244 51.9636 17.0217 55.1534 20.2281C60.3493 25.4528 66.3639 31.5 79.5 31.5C93.6333 31.5 102.467 24.5 106 10.5C100.7 17.5 94.5167 20.125 87.45 18.375C83.4181 17.3756 80.5364 14.4783 77.3466 11.2719C72.1507 6.0472 66.1361 0 53 0ZM26.5 31.5C12.3667 31.5 3.53333 38.5 0 52.5C5.3 45.5 11.4833 42.875 18.55 44.625C22.5819 45.6244 25.4636 48.5217 28.6534 51.7281C33.8493 56.9528 39.8639 63 53 63C67.1333 63 75.9667 56 79.5 42C74.2 49 68.0167 51.625 60.95 49.875C56.9181 48.8756 54.0364 45.9783 50.8466 42.7719C45.6507 37.5472 39.6361 31.5 26.5 31.5Z" fill="#14B4C6"/>
<path d="M159.094 26.7241H149.873V44.4899C149.873 49.2275 152.996 49.1534 159.094 48.8573V56.0377C146.749 57.5182 141.841 54.1131 141.841 44.4899V26.7241H135V19.0256H141.841V9.083L149.873 6.7142V19.0256H159.094V26.7241ZM194.244 19.0256H202.276V56.0377H194.244V50.7079C191.418 54.6312 187.031 57 181.231 57C171.117 57 162.714 48.4872 162.714 37.5316C162.714 26.502 171.117 18.0633 181.231 18.0633C187.031 18.0633 191.418 20.432 194.244 24.2813V19.0256ZM182.495 49.3755C189.188 49.3755 194.244 44.4159 194.244 37.5316C194.244 30.6474 189.188 25.6878 182.495 25.6878C175.802 25.6878 170.745 30.6474 170.745 37.5316C170.745 44.4159 175.802 49.3755 182.495 49.3755ZM215.661 13.4738C212.835 13.4738 210.53 11.105 210.53 8.3661C210.533 7.0122 211.074 5.7146 212.036 4.7573C212.997 3.7999 214.301 3.261 215.661 3.2584C217.021 3.261 218.325 3.7999 219.286 4.7573C220.248 5.7146 220.79 7.0122 220.792 8.3661C220.792 11.105 218.487 13.4738 215.661 13.4738ZM211.645 56.0377V19.0256H219.677V56.0377H211.645ZM228.972 56.0377V2H237.003V56.0377H228.972ZM289.132 19.0256H297.61L285.935 56.0377H278.052L270.318 31.0915L262.51 56.0377H254.628L242.952 19.0256H251.43L258.643 44.5639L266.451 19.0256H274.111L281.845 44.5639L289.132 19.0256ZM307.574 13.4738C304.749 13.4738 302.443 11.105 302.443 8.3661C302.446 7.0122 302.987 5.7146 303.949 4.7573C304.911 3.7999 306.214 3.261 307.574 3.2584C308.934 3.261 310.238 3.7999 311.2 4.7573C312.162 5.7146 312.703 7.0122 312.706 8.3661C312.706 11.105 310.4 13.4738 307.574 13.4738ZM303.559 56.0377V19.0256H311.59V56.0377H303.559ZM340.443 18.0633C348.772 18.0633 354.721 23.6891 354.721 33.3123V56.0377H346.69V34.1265C346.69 28.5007 343.418 25.5397 338.361 25.5397C333.081 25.5397 328.917 28.6487 328.917 36.1992V56.0377H320.886V19.0256H328.917V23.7631C331.371 19.9139 335.386 18.0633 340.443 18.0633ZM392.795 4.2207H400.826V56.0377H392.795V50.7079C389.969 54.6312 385.582 57 379.782 57C369.668 57 361.265 48.4872 361.265 37.5316C361.265 26.502 369.668 18.0633 379.782 18.0633C385.582 18.0633 389.969 20.432 392.795 24.2813V4.2207ZM381.046 49.3755C387.738 49.3755 392.795 44.4159 392.795 37.5316C392.795 30.6474 387.738 25.6878 381.046 25.6878C374.353 25.6878 369.296 30.6474 369.296 37.5316C369.296 44.4159 374.353 49.3755 381.046 49.3755ZM427.746 57C416.517 57 408.114 48.4872 408.114 37.5316C408.114 26.502 416.517 18.0633 427.746 18.0633C435.034 18.0633 441.355 21.8385 444.329 27.6124L437.413 31.6097C435.777 28.1306 432.133 25.9098 427.672 25.9098C421.128 25.9098 416.145 30.8695 416.145 37.5316C416.145 44.1938 421.128 49.1534 427.672 49.1534C432.133 49.1534 435.777 46.8587 437.562 43.4536L444.478 47.3769C441.355 53.2248 435.034 57 427.746 57ZM457.715 29.2409C457.715 35.9771 477.718 31.9058 477.718 45.6003C477.718 53.0027 471.249 57 463.217 57C455.781 57 450.427 53.6689 448.047 48.3392L454.963 44.3419C456.153 47.6729 459.127 49.6716 463.217 49.6716C466.787 49.6716 469.538 48.4872 469.538 45.5262C469.538 38.9381 449.535 42.6393 449.535 29.389C449.535 22.4307 455.558 18.0633 463.143 18.0633C469.241 18.0633 474.298 20.8762 476.9 25.7618L470.133 29.537C468.795 26.6501 466.192 25.3176 463.143 25.3176C460.243 25.3176 457.715 26.576 457.715 29.2409ZM491.996 29.2409C491.996 35.9771 512 31.9058 512 45.6003C512 53.0027 505.53 57 497.499 57C490.063 57 484.709 53.6689 482.329 48.3392L489.245 44.3419C490.435 47.6729 493.409 49.6716 497.499 49.6716C501.069 49.6716 503.82 48.4872 503.82 45.5262C503.82 38.9381 483.816 42.6393 483.816 29.389C483.816 22.4307 489.84 18.0633 497.425 18.0633C503.523 18.0633 508.579 20.8762 511.182 25.7618L504.415 29.537C503.076 26.6501 500.474 25.3176 497.425 25.3176C494.525 25.3176 491.996 26.576 491.996 29.2409Z" fill="black"/>
</svg>