<svg width="512" height="143" viewBox="0 0 512 143" fill="none" xmlns="http://www.w3.org/2000/svg">
<g clip-path="url(#clip0_6_74)">
<path fill-rule="evenodd" clip-rule="evenodd" d="M13.9079 0H128.509C136.19 0 142.416 6.22676 142.416 13.9079V128.509C142.416 136.19 136.19 142.416 128.509 142.416H13.9079C6.22676 142.416 0 136.19 0 128.509V13.9079C0 6.22676 6.22676 0 13.9079 0ZM88.1588 127.253V113.328C90.6836 115.446 93.4263 117.034 96.3864 118.093C99.3468 119.152 102.336 119.681 105.354 119.681C107.125 119.681 108.67 119.522 109.991 119.202C111.311 118.883 112.414 118.441 113.299 117.875C114.184 117.309 114.844 116.642 115.28 115.874C115.715 115.105 115.933 114.271 115.933 113.372C115.933 112.153 115.585 111.065 114.888 110.108C114.191 109.15 113.241 108.266 112.036 107.453C110.832 106.641 109.403 105.858 107.749 105.104C106.094 104.349 104.309 103.581 102.394 102.797C97.5182 100.767 93.8833 98.2862 91.4892 95.3564C89.0948 92.4263 87.8976 88.887 87.8976 84.7386C87.8976 81.4894 88.5507 78.6973 89.8567 76.3622C91.1626 74.0267 92.94 72.105 95.1892 70.5962C97.4387 69.0878 100.043 67.9782 103.003 67.2675C105.964 66.5568 109.098 66.2014 112.407 66.2014C115.657 66.2014 118.537 66.3972 121.048 66.7888C123.558 67.1805 125.873 67.7824 127.991 68.5946V81.6057C126.946 80.8803 125.807 80.2422 124.574 79.6909C123.34 79.1398 122.071 78.6828 120.765 78.3201C119.459 77.9577 118.16 77.6892 116.868 77.5151C115.577 77.3413 114.351 77.2542 113.19 77.2542C111.594 77.2542 110.143 77.4064 108.837 77.7109C107.531 78.0155 106.428 78.4436 105.528 78.9946C104.629 79.546 103.932 80.2057 103.439 80.9746C102.945 81.7434 102.699 82.6065 102.699 83.5636C102.699 84.6081 102.975 85.5436 103.526 86.3705C104.077 87.1972 104.861 87.9805 105.877 88.7204C106.892 89.46 108.126 90.1852 109.577 90.8961C111.028 91.6068 112.668 92.3392 114.496 93.0936C116.992 94.1378 119.234 95.2474 121.222 96.4223C123.21 97.5972 124.915 98.9246 126.337 100.404C127.759 101.884 128.847 103.573 129.602 105.474C130.357 107.374 130.734 109.586 130.734 112.11C130.734 115.591 130.073 118.513 128.753 120.878C127.433 123.242 125.64 125.157 123.377 126.622C121.113 128.087 118.479 129.138 115.475 129.776C112.472 130.415 109.301 130.734 105.964 130.734C102.539 130.734 99.2815 130.444 96.1906 129.863C93.0997 129.283 90.4224 128.413 88.1588 127.253ZM82.6126 79.0194H64.7494V129.899H50.5984V79.0194H32.8225V67.5921H82.6126V79.0194Z" fill="#3178C6"/>
<path d="M209.525 38.0428H191.787V92.9475H184.582V38.0428H166.881V31.5254H209.525V38.0428ZM237.516 49.092L217.328 99.9644C213.731 109.04 208.672 113.584 202.15 113.584C200.321 113.584 198.797 113.401 197.566 113.024V106.725C199.077 107.237 200.467 107.493 201.723 107.493C205.271 107.493 207.928 105.385 209.696 101.158L213.207 92.8501L196.066 49.092H203.869L215.743 82.8364C215.889 83.2628 216.182 84.3835 216.645 86.1743H216.901C217.047 85.4921 217.328 84.4079 217.754 82.9217L230.226 49.092H237.516ZM249.012 86.6128H248.842V113.121H241.807V49.092H248.842V56.8032H249.012C252.475 50.9802 257.522 48.0687 264.19 48.0687C269.847 48.0687 274.26 50.03 277.43 53.9526C280.6 57.8753 282.185 63.1379 282.185 69.7406C282.185 77.0743 280.405 82.9582 276.833 87.3681C273.261 91.7781 268.372 93.983 262.179 93.983C256.486 93.9708 252.097 91.5222 249.012 86.6128ZM248.842 68.9244V75.052C248.842 78.6823 250.024 81.7522 252.377 84.2861C254.73 86.8199 257.729 88.0747 261.362 88.0747C265.617 88.0747 268.957 86.4423 271.371 83.1897C273.785 79.9371 274.992 75.4053 274.992 69.6188C274.992 64.7338 273.858 60.9086 271.603 58.1433C269.347 55.3779 266.287 53.9892 262.435 53.9892C258.351 53.9892 255.059 55.4145 252.572 58.2529C250.085 61.0792 248.842 64.6363 248.842 68.9244ZM324.829 72.774H293.839C293.949 77.659 295.266 81.4233 297.777 84.079C300.288 86.7347 303.751 88.0625 308.152 88.0625C313.089 88.0625 317.636 86.4301 321.781 83.1775V89.768C317.929 92.5699 312.821 93.9708 306.482 93.9708C300.276 93.9708 295.412 91.9851 291.864 88.0016C288.317 84.0181 286.549 78.4143 286.549 71.1903C286.549 64.3683 288.487 58.8011 292.352 54.513C296.229 50.2127 301.032 48.0687 306.774 48.0687C312.516 48.0687 316.954 49.9204 320.099 53.6359C323.244 57.3514 324.817 62.5045 324.817 69.095V72.774H324.829ZM317.624 66.8169C317.6 62.7603 316.612 59.6051 314.686 57.3514C312.76 55.0978 310.078 53.9648 306.652 53.9648C303.336 53.9648 300.52 55.1465 298.204 57.522C295.887 59.8975 294.461 62.9918 293.912 66.8169H317.624ZM330.974 90.4624V81.9837C331.864 82.8364 332.924 83.616 334.168 84.2982C335.411 84.9804 336.716 85.5652 338.093 86.0281C339.471 86.491 340.848 86.8687 342.226 87.1245C343.616 87.3803 344.896 87.5143 346.066 87.5143C350.114 87.5143 353.149 86.6981 355.149 85.0535C357.148 83.409 358.148 81.0456 358.148 77.9636C358.148 76.3068 357.819 74.8693 357.148 73.6389C356.477 72.4085 355.563 71.2878 354.381 70.2767C353.198 69.2655 351.808 68.291 350.199 67.3651C348.59 66.4393 346.859 65.4647 345.006 64.4292C343.043 63.345 341.214 62.2486 339.52 61.1279C337.825 60.0193 336.338 58.7889 335.094 57.4489C333.839 56.1089 332.851 54.5861 332.132 52.8928C331.412 51.1995 331.059 49.2016 331.059 46.9236C331.059 44.1217 331.62 41.6974 332.741 39.6265C333.863 37.5555 335.338 35.85 337.179 34.51C339.008 33.17 341.092 32.171 343.433 31.5132C345.774 30.8554 348.163 30.5265 350.589 30.5265C356.136 30.5265 360.171 31.2574 362.707 32.7071V40.796C359.391 38.2865 355.124 37.0317 349.919 37.0317C348.48 37.0317 347.042 37.2023 345.603 37.519C344.164 37.8479 342.884 38.3839 341.763 39.127C340.641 39.8701 339.727 40.8203 339.02 42.002C338.313 43.1715 337.959 44.5968 337.959 46.2901C337.959 47.8616 338.227 49.2138 338.764 50.3589C339.3 51.504 340.093 52.5395 341.141 53.4897C342.189 54.4277 343.457 55.3414 344.969 56.2307C346.469 57.12 348.2 58.0824 350.162 59.1422C352.174 60.2264 354.088 61.3715 355.892 62.5654C357.697 63.7592 359.281 65.0871 360.635 66.5489C361.988 68.0108 363.073 69.6188 363.865 71.3852C364.658 73.1516 365.06 75.186 365.06 77.4641C365.06 80.4852 364.511 83.0557 363.439 85.151C362.354 87.2463 360.891 88.9518 359.05 90.2675C357.209 91.5831 355.088 92.5333 352.674 93.1181C350.272 93.7028 347.736 93.9952 345.067 93.9952C344.177 93.9952 343.079 93.9221 341.775 93.7637C340.47 93.6054 339.129 93.3739 337.776 93.0815C336.411 92.777 335.131 92.4115 333.912 91.973C332.68 91.4979 331.717 90.9984 330.974 90.4624ZM402.475 90.9375C399.098 92.9597 395.099 93.983 390.479 93.983C384.225 93.983 379.165 91.9486 375.325 87.8798C371.485 83.811 369.559 78.5361 369.559 72.0552C369.559 64.8313 371.631 59.0326 375.776 54.647C379.921 50.2615 385.444 48.0687 392.368 48.0687C396.221 48.0687 399.622 48.7874 402.572 50.2127V57.4124C399.317 55.1221 395.831 53.9892 392.112 53.9892C387.626 53.9892 383.944 55.5972 381.079 58.8133C378.214 62.0294 376.776 66.2444 376.776 71.4705C376.776 76.6113 378.129 80.668 380.823 83.6282C383.517 86.5885 387.15 88.0869 391.686 88.0869C395.514 88.0869 399.11 86.8199 402.487 84.2739V90.9375H402.475ZM429.673 56.1941C428.442 55.2561 426.674 54.781 424.358 54.781C421.359 54.781 418.847 56.1941 416.836 59.0204C414.824 61.8466 413.812 65.6962 413.812 70.5812V92.9353H406.778V49.0798H413.812V58.1189H413.983C414.983 55.0368 416.507 52.6248 418.567 50.9071C420.627 49.1773 422.919 48.3123 425.467 48.3123C427.296 48.3123 428.698 48.5072 429.673 48.9093V56.1941ZM437.744 37.9575C436.488 37.9575 435.415 37.5312 434.525 36.6784C433.635 35.8257 433.196 34.7415 433.196 33.4258C433.196 32.1101 433.635 31.0259 434.525 30.1488C435.415 29.2839 436.488 28.8453 437.744 28.8453C439.024 28.8453 440.121 29.2839 441.023 30.1488C441.925 31.0259 442.376 32.1101 442.376 33.4258C442.376 34.6806 441.925 35.7526 441.023 36.6419C440.121 37.5068 439.024 37.9575 437.744 37.9575ZM441.169 92.9475H434.135V49.092H441.169V92.9475ZM452.507 86.6128H452.337V113.121H445.302V49.092H452.337V56.8032H452.507C455.969 50.9802 461.017 48.0687 467.685 48.0687C473.342 48.0687 477.755 50.03 480.925 53.9526C484.095 57.8753 485.679 63.1379 485.679 69.7406C485.679 77.0743 483.899 82.9582 480.327 87.3681C476.755 91.7781 471.867 93.983 465.674 93.983C459.98 93.9708 455.592 91.5222 452.507 86.6128ZM452.337 68.9244V75.052C452.337 78.6823 453.519 81.7522 455.872 84.2861C458.225 86.8199 461.224 88.0747 464.857 88.0747C469.112 88.0747 472.452 86.4423 474.866 83.1897C477.28 79.9371 478.487 75.4053 478.487 69.6188C478.487 64.7338 477.353 60.9086 475.097 58.1433C472.842 55.3779 469.782 53.9892 465.93 53.9892C461.846 53.9892 458.554 55.4145 456.067 58.2529C453.58 61.0792 452.337 64.6363 452.337 68.9244ZM512 92.5212C510.342 93.4348 508.16 93.8856 505.441 93.8856C497.761 93.8856 493.908 89.5975 493.908 81.0334V55.0856H486.362V49.092H493.908V38.3839L500.943 36.118V49.092H512V55.0856H500.943V79.7909C500.943 82.7268 501.443 84.8343 502.442 86.089C503.442 87.3438 505.1 87.9772 507.416 87.9772C509.184 87.9772 510.72 87.49 512 86.5154V92.5212Z" fill="#007ACC"/>
</g>
<defs>
<clipPath id="clip0_6_74">
<rect width="512" height="142.416" fill="white"/>
</clipPath>
</defs>
</svg>