<svg width="256" height="256" viewBox="0 0 256 256" fill="none" xmlns="http://www.w3.org/2000/svg">
<path d="M116.121 2.27853C87.1758 4.65429 58.3758 18.327 38.0607 39.321C17.988 60.024 5.81827 85.2361 2.61827 112.776C1.64857 121.066 1.93948 139.491 3.1516 147.394C6.30312 167.806 14.4486 187.297 26.8607 203.879C32.4365 211.345 44.4607 223.418 51.8789 228.945C68.2183 241.212 86.2546 249.018 106.473 252.703C112.146 253.721 114.085 253.818 127.758 253.769C144.436 253.769 148.267 253.382 159.758 250.424C192.485 242.036 221.043 220.266 237.624 191.127C245.527 177.26 250.812 162.376 252.849 148.363C254.061 140.072 254.352 119.903 253.382 112C246.352 54.8846 200.533 9.26035 143.515 2.71489C137.6 2.0361 122.085 1.79368 116.121 2.27853ZM144.388 55.5634C152.291 57.2119 159.467 62.6422 162.812 69.4785L164.412 72.727H177.115C191.176 72.727 193.455 73.0664 199.127 75.6846C205.285 78.5937 210.958 85.7694 212.412 92.5573C212.703 93.9634 212.849 97.4543 212.752 100.315C212.606 105.212 212.461 105.745 210.764 109.285C208.436 113.939 204.315 118.303 200.533 120.048C197.479 121.454 197.527 121.212 200.243 126.06C201.212 127.806 205.139 135.321 208.97 142.788C212.752 150.254 216.049 156.557 216.291 156.8C216.533 157.091 216.727 157.479 216.727 157.672C216.727 157.866 212.509 158.06 207.321 158.06H197.915L198.449 160.097C199.224 163.2 199.176 185.26 198.352 188.606C196.849 194.86 192.436 200.291 187.491 202.036C185.552 202.715 183.515 202.909 178.861 202.909H172.752L169.891 200.969C165.285 197.866 165.624 197.915 166.012 200.436L166.352 202.666H159.079H151.758V186.763C151.758 178.036 151.612 163.248 151.418 153.891L151.127 136.824L148.412 137.794C142.739 139.733 142.109 139.782 103.37 140.072L65.4546 140.363L65.4062 164.848L65.3577 189.333H82.5213H99.6365L99.8789 196.121C100.024 199.854 100.073 203.054 99.9758 203.248C99.8789 203.491 88.4849 203.636 74.6183 203.636H49.4546V129.212V54.7876L79.4183 54.6907C124.412 54.4967 140.17 54.6907 144.388 55.5634ZM135.515 147.103C142.206 149.285 145.6 152.582 147.394 158.448C148.315 161.503 148.364 162.812 148.267 182.303L148.121 202.909H141.333H134.546L134.691 200.824C134.788 199.709 134.691 198.788 134.546 198.788C134.4 198.788 133.479 199.369 132.606 200.048C128.436 203.2 120.921 204.412 114.667 202.957C108.8 201.551 105.309 198.788 102.885 193.503C101.77 191.127 101.624 190.109 101.624 185.697C101.576 180.945 101.673 180.46 103.03 178.036C103.806 176.582 105.503 174.497 106.764 173.333C110.497 169.988 112.194 169.6 123.879 169.26L134.061 168.969L133.915 166.788C133.479 160.485 130.57 158.06 123.297 158.06C119.176 158.06 116.121 159.176 114.473 161.26C113.988 161.891 113.261 162.424 112.97 162.424C112.63 162.424 111.127 161.163 109.624 159.612C108.121 158.06 106.182 156.218 105.358 155.491C104.485 154.763 103.758 153.939 103.758 153.648C103.758 153.309 104.533 152.339 105.503 151.466C110.206 147.006 115.733 145.406 125.333 145.648C130.521 145.794 132.315 146.036 135.515 147.103Z" fill="black"/>
<path d="M66.9092 79.4666V89.212H83.394H99.8789V91.006C99.8789 92.0241 99.9274 95.3696 100.024 98.4241L100.121 104L83.5395 104.145L66.9092 104.242V114.424V124.606H85.5758H104.243V97.4544V70.3029H86.691C76.994 70.3029 68.6061 70.1575 68.0243 70.012L66.9092 69.7211V79.4666Z" fill="black"/>
<path d="M121.649 70.642C121.6 70.836 121.552 83.1026 121.503 97.842L121.455 124.703L129.697 124.509C137.6 124.363 138.036 124.315 140.703 123.006C143.903 121.406 147.006 118.206 147.782 115.539C148.897 111.854 149.333 106.763 149.333 97.3572C149.333 80.2905 147.927 75.539 141.624 71.8542C139.442 70.5935 139.152 70.5451 130.57 70.3996C125.673 70.3026 121.649 70.3996 121.649 70.642Z" fill="black"/>
<path d="M169.212 98.7636V109.576H177.842C182.594 109.576 187.297 109.333 188.364 109.042C189.576 108.703 191.176 107.636 192.533 106.23C196.945 101.867 196.945 96.1939 192.533 91.4908C189.915 88.6302 188.655 88.3393 178.521 88.1454L169.212 87.9999V98.7636Z" fill="black"/>
<path d="M169.115 136.242C169.018 142.642 169.115 147.878 169.261 147.878C169.455 147.878 170.812 147.297 172.315 146.618C177.455 144.29 183.224 144.581 189.236 147.539C191.03 148.412 192.485 149.09 192.485 149.042C192.485 148.945 189.867 143.757 186.667 137.503C183.467 131.248 180.849 125.818 180.849 125.381C180.849 124.703 180.024 124.606 175.03 124.606H169.261L169.115 136.242Z" fill="black"/>
<path d="M171.297 159.321C167.661 161.115 166.109 166.448 166.4 176C166.594 182.109 166.691 182.739 168.049 185.212C170.085 188.994 172.024 190.206 175.855 189.963C179.685 189.721 181.139 188.703 183.03 184.97C184.485 182.109 184.485 181.963 184.485 174.303C184.485 166.642 184.485 166.497 183.03 163.636C181.139 159.854 179.249 158.545 175.564 158.545C174.061 158.545 172.121 158.933 171.297 159.321Z" fill="black"/>
<path d="M120.97 179.345C118.642 179.927 117.479 180.751 116.412 182.497C114.958 184.824 115.103 186.764 116.849 188.8C118.836 191.03 121.018 191.709 125.285 191.37C128.97 191.03 130.473 190.254 132.17 187.733C133.188 186.23 134.691 180.073 134.158 179.588C133.721 179.103 122.521 178.909 120.97 179.345Z" fill="black"/>
<path d="M255.612 128.969C255.612 129.648 255.709 129.891 255.855 129.551C255.952 129.26 255.952 128.679 255.855 128.339C255.709 128.048 255.612 128.291 255.612 128.969Z" fill="black"/>
</svg>
