<svg width="86" height="22" viewBox="0 0 86 22" fill="none" xmlns="http://www.w3.org/2000/svg">
<path d="M24.056 14.256L23.96 7.236C23.96 6.724 24.996 6.468 27.068 6.468C28.044 6.468 28.86 6.652 29.516 7.02C30.18 7.388 30.512 7.916 30.512 8.604C30.512 9.06 30.336 9.492 29.984 9.9C29.632 10.308 29.236 10.568 28.796 10.68C29.348 10.848 29.824 11.092 30.224 11.412C30.632 11.732 30.836 12.148 30.836 12.66C30.836 13.172 30.616 13.624 30.176 14.016C29.328 14.76 28.024 15.132 26.264 15.132C24.792 15.132 24.056 14.84 24.056 14.256ZM24.836 10.716C25.332 10.524 25.88 10.428 26.48 10.428C26.76 10.428 27.04 10.428 27.32 10.428C27.744 10.428 28.256 10.24 28.856 9.864C29.464 9.48 29.768 9.116 29.768 8.772C29.768 8.26 29.448 7.856 28.808 7.56C28.168 7.256 27.46 7.104 26.684 7.104C25.908 7.104 25.28 7.192 24.8 7.368C24.8 7.512 24.8 7.724 24.8 8.004C24.8 8.276 24.804 8.732 24.812 9.372C24.828 10.004 24.836 10.452 24.836 10.716ZM29.96 12.66C29.96 11.964 29.208 11.456 27.704 11.136C26.936 11.36 26.208 11.472 25.52 11.472C25.296 11.472 25.076 11.46 24.86 11.436C24.884 12.388 24.896 13.356 24.896 14.34C25.36 14.444 25.828 14.496 26.3 14.496C26.78 14.496 27.204 14.468 27.572 14.412C27.948 14.348 28.32 14.252 28.688 14.124C29.064 13.996 29.368 13.804 29.6 13.548C29.84 13.292 29.96 12.996 29.96 12.66ZM32.4715 10.02C32.8795 9.396 33.4675 9.084 34.2355 9.084C35.0035 9.084 35.6155 9.396 36.0715 10.02C36.5355 10.644 36.7675 11.356 36.7675 12.156C36.7675 12.948 36.5155 13.62 36.0115 14.172C35.5075 14.724 34.8675 15 34.0915 15C33.3155 15 32.7515 14.784 32.3995 14.352C32.0475 13.912 31.8715 13.296 31.8715 12.504C31.8715 11.472 32.0715 10.644 32.4715 10.02ZM32.9995 10.656C32.8955 10.968 32.8155 11.28 32.7595 11.592C32.7115 11.904 32.6875 12.196 32.6875 12.468C32.6875 12.732 32.7075 12.976 32.7475 13.2C32.7875 13.416 32.8555 13.632 32.9515 13.848C33.0475 14.056 33.1915 14.224 33.3835 14.352C33.5755 14.472 33.8035 14.532 34.0675 14.532C34.6035 14.532 35.0515 14.312 35.4115 13.872C35.7795 13.432 35.9635 12.9 35.9635 12.276C35.9635 11.652 35.7955 11.048 35.4595 10.464C35.1315 9.872 34.7275 9.576 34.2475 9.576C33.9595 9.576 33.7075 9.676 33.4915 9.876C33.2755 10.076 33.1115 10.336 32.9995 10.656ZM38.3543 10.02C38.7623 9.396 39.3503 9.084 40.1183 9.084C40.8863 9.084 41.4983 9.396 41.9543 10.02C42.4183 10.644 42.6503 11.356 42.6503 12.156C42.6503 12.948 42.3983 13.62 41.8943 14.172C41.3903 14.724 40.7503 15 39.9743 15C39.1983 15 38.6343 14.784 38.2823 14.352C37.9303 13.912 37.7543 13.296 37.7543 12.504C37.7543 11.472 37.9543 10.644 38.3543 10.02ZM38.8823 10.656C38.7783 10.968 38.6983 11.28 38.6423 11.592C38.5943 11.904 38.5703 12.196 38.5703 12.468C38.5703 12.732 38.5903 12.976 38.6303 13.2C38.6703 13.416 38.7383 13.632 38.8343 13.848C38.9303 14.056 39.0743 14.224 39.2663 14.352C39.4583 14.472 39.6863 14.532 39.9503 14.532C40.4863 14.532 40.9343 14.312 41.2943 13.872C41.6623 13.432 41.8463 12.9 41.8463 12.276C41.8463 11.652 41.6783 11.048 41.3423 10.464C41.0143 9.872 40.6103 9.576 40.1303 9.576C39.8423 9.576 39.5903 9.676 39.3743 9.876C39.1583 10.076 38.9943 10.336 38.8823 10.656ZM44.8011 6.096C44.8091 6.656 44.8131 7.076 44.8131 7.356C44.8131 7.628 44.8091 7.9 44.8011 8.172C44.8011 8.444 44.7891 8.972 44.7651 9.756C44.7411 10.532 44.7251 11.148 44.7171 11.604C45.0211 11.396 45.3851 11.076 45.8091 10.644C46.2331 10.204 46.6171 9.828 46.9611 9.516C47.5051 9.028 47.8931 8.88 48.1251 9.072C48.2131 9.144 48.2411 9.212 48.2091 9.276C48.1291 9.444 47.9451 9.648 47.6571 9.888C47.3771 10.128 47.0451 10.4 46.6611 10.704C46.2771 11.008 45.9731 11.288 45.7491 11.544C46.3331 11.624 46.8011 11.952 47.1531 12.528C47.3051 12.792 47.4531 13.056 47.5971 13.32C47.9651 14.016 48.3651 14.488 48.7971 14.736C48.6371 14.896 48.4531 14.976 48.2451 14.976C48.0371 14.976 47.8291 14.876 47.6211 14.676C47.4211 14.476 47.2451 14.232 47.0931 13.944C46.9491 13.656 46.8011 13.368 46.6491 13.08C46.3051 12.384 45.9051 12.036 45.4491 12.036C45.2331 12.036 45.0491 12.108 44.8971 12.252C44.7451 12.388 44.6691 12.532 44.6691 12.684C44.6691 13.644 44.6531 14.356 44.6211 14.82C44.5091 14.972 44.3891 15.048 44.2611 15.048C44.2211 15.048 44.1771 15.04 44.1291 15.024C43.9531 14.952 43.8651 14.804 43.8651 14.58C43.8731 14.356 43.8971 13.676 43.9371 12.54C44.0251 9.636 44.0691 7.78 44.0691 6.972C44.0691 6.596 44.1051 6.344 44.1771 6.216C44.2571 6.088 44.3491 6.024 44.4531 6.024C44.5651 6.024 44.6811 6.048 44.8011 6.096ZM52.4309 10.2C52.3589 10.016 52.2229 9.872 52.0229 9.768C51.8229 9.664 51.5749 9.612 51.2789 9.612C50.9829 9.612 50.7029 9.7 50.4389 9.876C50.1829 10.052 50.0549 10.288 50.0549 10.584C50.0549 10.88 50.1749 11.116 50.4149 11.292C50.6629 11.46 50.9589 11.588 51.3029 11.676C51.6549 11.764 52.0069 11.86 52.3589 11.964C52.7109 12.06 53.0069 12.224 53.2469 12.456C53.4949 12.68 53.6189 12.976 53.6189 13.344C53.6189 13.88 53.3949 14.288 52.9469 14.568C52.5069 14.848 51.9749 14.988 51.3509 14.988C50.9829 14.988 50.4989 14.888 49.8989 14.688C49.3069 14.488 49.0109 14.248 49.0109 13.968C49.0109 13.76 49.1869 13.656 49.5389 13.656C49.6429 13.656 49.7789 13.72 49.9469 13.848C50.4589 14.224 50.9829 14.412 51.5189 14.412C51.8069 14.412 52.0549 14.364 52.2629 14.268C52.6469 14.084 52.8389 13.788 52.8389 13.38C52.8389 13.132 52.7149 12.932 52.4669 12.78C52.2269 12.628 51.9309 12.508 51.5789 12.42C51.2349 12.332 50.8869 12.236 50.5349 12.132C50.1829 12.028 49.8829 11.856 49.6349 11.616C49.3949 11.368 49.2749 11.056 49.2749 10.68C49.2749 10.192 49.4949 9.796 49.9349 9.492C50.3749 9.188 50.9189 9.036 51.5669 9.036C52.0069 9.036 52.4029 9.152 52.7549 9.384C53.1149 9.608 53.2949 9.936 53.2949 10.368C53.2949 10.656 53.1309 10.8 52.8029 10.8C52.6669 10.8 52.5749 10.776 52.5269 10.728C52.4869 10.68 52.4629 10.596 52.4549 10.476C52.4549 10.348 52.4469 10.256 52.4309 10.2ZM54.7175 12.516L54.8255 7.14C54.8255 6.724 54.8015 6.44 54.7535 6.288C54.8975 6.16 55.1175 6.096 55.4135 6.096C55.5335 6.952 55.5935 8.052 55.5935 9.396C55.5935 9.796 55.5575 10.724 55.4855 12.18C55.8615 10.156 56.5335 9.144 57.5015 9.144C57.8455 9.144 58.1095 9.328 58.2935 9.696C58.4855 10.056 58.6055 10.496 58.6535 11.016C58.7015 11.536 58.7415 12.056 58.7735 12.576C58.8535 13.824 59.0775 14.448 59.4455 14.448C59.4535 14.448 59.5295 14.424 59.6735 14.376C59.9935 14.28 60.1735 14.256 60.2135 14.304C60.2135 14.392 60.0895 14.504 59.8415 14.64C59.5935 14.768 59.3655 14.832 59.1575 14.832C58.8055 14.832 58.5335 14.652 58.3415 14.292C58.1575 13.924 58.0415 13.48 57.9935 12.96C57.9535 12.44 57.9215 11.924 57.8975 11.412C57.8815 10.892 57.8295 10.452 57.7415 10.092C57.6535 9.724 57.5055 9.54 57.2975 9.54C57.0415 9.54 56.8055 9.82 56.5895 10.38C56.3815 10.932 56.2175 11.544 56.0975 12.216C55.9775 12.888 55.8295 13.504 55.6535 14.064C55.4855 14.616 55.3135 14.892 55.1375 14.892C54.8575 14.892 54.7175 14.1 54.7175 12.516ZM61.1169 12.564C61.1009 12.724 61.0929 12.832 61.0929 12.888C61.0929 13.368 61.2369 13.74 61.5249 14.004C61.8209 14.268 62.1689 14.4 62.5689 14.4C62.9689 14.4 63.2929 14.344 63.5409 14.232C63.7969 14.12 63.9809 14 64.0929 13.872C64.3809 13.512 64.6449 13.332 64.8849 13.332C64.9729 13.332 65.0769 13.356 65.1969 13.404C65.1169 13.796 64.8129 14.156 64.2849 14.484C63.7649 14.804 63.1089 14.964 62.3169 14.964C61.7569 14.964 61.2729 14.788 60.8649 14.436C60.4649 14.076 60.2649 13.588 60.2649 12.972C60.2649 12.356 60.3849 11.76 60.6249 11.184C60.8729 10.6 61.2249 10.104 61.6809 9.696C62.1449 9.28 62.6129 9.072 63.0849 9.072C63.5649 9.072 63.9489 9.172 64.2369 9.372C64.5329 9.564 64.6809 9.848 64.6809 10.224C64.6809 10.92 64.3689 11.496 63.7449 11.952C63.1289 12.4 62.4729 12.624 61.7769 12.624C61.5929 12.624 61.3729 12.604 61.1169 12.564ZM62.0289 12.168C62.4049 12.168 62.7409 12.048 63.0369 11.808C63.3329 11.568 63.5409 11.316 63.6609 11.052C63.7889 10.788 63.8529 10.548 63.8529 10.332C63.8529 10.116 63.7689 9.928 63.6009 9.768C63.4329 9.6 63.2369 9.516 63.0129 9.516C62.6129 9.516 62.2409 9.792 61.8969 10.344C61.5609 10.896 61.3209 11.468 61.1769 12.06C61.5289 12.132 61.8129 12.168 62.0289 12.168ZM66.5728 7.824C66.5728 7.032 66.4648 6.5 66.2488 6.228C66.3528 6.076 66.5328 6 66.7888 6C66.8368 6 66.8888 6.004 66.9448 6.012C67.1448 6.212 67.2448 6.792 67.2448 7.752C67.2448 8.272 67.2208 8.876 67.1728 9.564C67.0768 10.764 67.0288 11.644 67.0288 12.204C67.0288 13.716 67.3208 14.472 67.9048 14.472C67.9048 14.472 68.0528 14.444 68.3488 14.388C68.4208 14.388 68.4808 14.42 68.5288 14.484C68.5048 14.772 68.2688 14.916 67.8208 14.916C67.3808 14.916 67.0408 14.784 66.8008 14.52C66.5608 14.248 66.4088 13.912 66.3448 13.512C66.2888 13.104 66.2607 12.768 66.2607 12.504C66.2607 12.24 66.2648 11.952 66.2728 11.64C66.2808 11.32 66.3168 10.864 66.3808 10.272C66.5088 9.072 66.5728 8.256 66.5728 7.824ZM68.4721 9.228C68.5441 9.076 68.7001 9 68.9401 9C69.0441 9 69.1321 9.024 69.2041 9.072C69.4281 9.688 69.6481 10.308 69.8641 10.932C70.2721 12.076 70.6521 12.98 71.0041 13.644C71.1721 12.668 71.4961 11.684 71.9761 10.692C72.4641 9.7 72.9081 9.204 73.3081 9.204C73.4281 9.204 73.5481 9.232 73.6681 9.288C72.7481 10.496 72.0881 12.096 71.6881 14.088C71.6081 14.552 71.5201 14.816 71.4241 14.88C71.3201 14.952 71.2121 14.988 71.1001 14.988C70.9881 14.988 70.9001 14.964 70.8361 14.916C70.7801 14.868 70.7361 14.82 70.7041 14.772C70.6801 14.724 70.6441 14.644 70.5961 14.532C70.5561 14.42 70.5241 14.344 70.5001 14.304C69.6841 12.776 69.0081 11.084 68.4721 9.228ZM74.8044 12.564C74.7884 12.724 74.7804 12.832 74.7804 12.888C74.7804 13.368 74.9244 13.74 75.2124 14.004C75.5084 14.268 75.8564 14.4 76.2564 14.4C76.6564 14.4 76.9804 14.344 77.2284 14.232C77.4844 14.12 77.6684 14 77.7804 13.872C78.0684 13.512 78.3324 13.332 78.5724 13.332C78.6604 13.332 78.7644 13.356 78.8844 13.404C78.8044 13.796 78.5004 14.156 77.9724 14.484C77.4524 14.804 76.7964 14.964 76.0044 14.964C75.4444 14.964 74.9604 14.788 74.5524 14.436C74.1524 14.076 73.9524 13.588 73.9524 12.972C73.9524 12.356 74.0724 11.76 74.3124 11.184C74.5604 10.6 74.9124 10.104 75.3684 9.696C75.8324 9.28 76.3004 9.072 76.7724 9.072C77.2524 9.072 77.6364 9.172 77.9244 9.372C78.2204 9.564 78.3684 9.848 78.3684 10.224C78.3684 10.92 78.0564 11.496 77.4324 11.952C76.8164 12.4 76.1604 12.624 75.4644 12.624C75.2804 12.624 75.0604 12.604 74.8044 12.564ZM75.7164 12.168C76.0924 12.168 76.4284 12.048 76.7244 11.808C77.0204 11.568 77.2284 11.316 77.3484 11.052C77.4764 10.788 77.5404 10.548 77.5404 10.332C77.5404 10.116 77.4564 9.928 77.2884 9.768C77.1204 9.6 76.9244 9.516 76.7004 9.516C76.3004 9.516 75.9284 9.792 75.5844 10.344C75.2484 10.896 75.0084 11.468 74.8644 12.06C75.2164 12.132 75.5004 12.168 75.7164 12.168ZM82.8763 10.2C82.8043 10.016 82.6683 9.872 82.4683 9.768C82.2683 9.664 82.0203 9.612 81.7243 9.612C81.4283 9.612 81.1483 9.7 80.8843 9.876C80.6283 10.052 80.5003 10.288 80.5003 10.584C80.5003 10.88 80.6203 11.116 80.8603 11.292C81.1083 11.46 81.4043 11.588 81.7483 11.676C82.1003 11.764 82.4523 11.86 82.8043 11.964C83.1563 12.06 83.4523 12.224 83.6923 12.456C83.9403 12.68 84.0643 12.976 84.0643 13.344C84.0643 13.88 83.8403 14.288 83.3923 14.568C82.9523 14.848 82.4203 14.988 81.7963 14.988C81.4283 14.988 80.9443 14.888 80.3443 14.688C79.7523 14.488 79.4563 14.248 79.4563 13.968C79.4563 13.76 79.6323 13.656 79.9843 13.656C80.0883 13.656 80.2243 13.72 80.3923 13.848C80.9043 14.224 81.4283 14.412 81.9643 14.412C82.2523 14.412 82.5003 14.364 82.7083 14.268C83.0923 14.084 83.2843 13.788 83.2843 13.38C83.2843 13.132 83.1603 12.932 82.9123 12.78C82.6723 12.628 82.3763 12.508 82.0243 12.42C81.6803 12.332 81.3323 12.236 80.9803 12.132C80.6283 12.028 80.3283 11.856 80.0803 11.616C79.8403 11.368 79.7203 11.056 79.7203 10.68C79.7203 10.192 79.9403 9.796 80.3803 9.492C80.8203 9.188 81.3643 9.036 82.0123 9.036C82.4523 9.036 82.8483 9.152 83.2003 9.384C83.5603 9.608 83.7403 9.936 83.7403 10.368C83.7403 10.656 83.5763 10.8 83.2483 10.8C83.1123 10.8 83.0203 10.776 82.9723 10.728C82.9323 10.68 82.9083 10.596 82.9003 10.476C82.9003 10.348 82.8923 10.256 82.8763 10.2Z" fill="black"/>
<g clip-path="url(#clip0)">
<path d="M7.02935 0L1.03992 7.26708L9.90425 17.7286L15.8138 10.7809L7.02935 0Z" fill="#564FCC"/>
<path opacity="0.1" d="M7.02935 0L1.03992 7.26708L9.90425 17.7286L15.8138 10.7809L7.02935 0Z" fill="black"/>
<path d="M1.27951 7.34697C1.41199 7.1085 1.57628 6.88912 1.76785 6.6949L7.2689 1.11799C7.2689 1.11799 9.1855 0.798556 9.58482 1.75686L2.55725 7.50669L1.27951 7.34697Z" fill="#F2F2F2"/>
<path d="M1 7.22721L9.14555 19.6851C9.14555 19.6851 9.94414 20.2442 10.7427 19.9247L19.0879 14.2947L10.2237 0.878433L2.23781 7.10738L1 7.22721Z" fill="#564FCC"/>
</g>
<defs>
<clipPath id="clip0">
<rect width="20" height="20" fill="white"/>
</clipPath>
</defs>
</svg>