<?xml version="1.0" encoding="UTF-8" standalone="no"?>
<!DOCTYPE svg PUBLIC "-//W3C//DTD SVG 20010904//EN" "http://www.w3.org/TR/2001/REC-SVG-20010904/DTD/svg10.dtd">
<svg version="1.0" xmlns="http://www.w3.org/2000/svg" width="300.000000pt" height="300.000000pt" viewBox="0 0 300.000000 300.000000" preserveAspectRatio="xMidYMid meet">

<g transform="translate(0.000000,300.000000) scale(0.100000,-0.100000)" fill="#000000" stroke="none">
<path d="M1272 2760 c-28 -12 -46 -51 -38 -84 5 -19 21 -33 54 -49 54 -26 54 -42 0 -41 -33 1 -38 -2 -38 -22 0 -42 86 -49 125 -9 43 42 28 86 -41 117 -53 23 -53 43 0 42 29 -1 36 2 36 17 0 33 -50 48 -98 29z"/>
<path d="M1636 2670 c-73 -117 -73 -116 -41 -124 20 -5 30 -1 43 15 25 30 87 18 105 -20 8 -17 22 -27 40 -29 24 -3 27 -1 22 20 -3 13 -14 65 -24 116 -10 51 -21 95 -23 97 -2 3 -18 8 -35 11 -30 6 -32 3 -87 -86z m93 -42 c1 -11 -6 -18 -18 -18 -29 0 -34 16 -15 52 l18 33 7 -25 c4 -14 7 -33 8 -42z"/>
<path d="M1051 2699 c-30 -10 -56 -21 -59 -23 -5 -5 57 -197 68 -209 4 -4 19 -3 33 2 26 10 26 11 12 51 -13 36 -13 42 1 47 10 3 29 -8 52 -30 32 -30 40 -33 60 -24 29 13 28 18 -12 57 -29 29 -33 38 -29 70 4 31 1 40 -22 58 -33 26 -35 26 -104 1z m66 -73 c-7 -17 -47 -23 -47 -7 0 5 -3 16 -6 24 -7 20 26 28 45 11 7 -7 11 -20 8 -28z"/>
<path d="M1910 2677 c-37 -18 -70 -74 -70 -117 0 -64 64 -120 137 -120 23 0 31 7 46 43 22 55 22 54 -15 73 -30 15 -32 15 -45 -2 -9 -12 -10 -21 -3 -28 16 -16 12 -26 -9 -26 -22 0 -51 35 -51 63 0 24 44 67 68 67 11 0 36 -11 56 -25 32 -22 37 -23 43 -9 9 25 -8 46 -57 72 -51 25 -65 27 -100 9z"/>
<path d="M857 2611 c-27 -16 -53 -33 -58 -38 -12 -12 95 -199 111 -195 30 7 120 66 120 78 0 25 -28 27 -64 5 -35 -22 -35 -22 -45 -2 -14 26 -16 24 24 45 38 21 39 24 25 46 -8 12 -14 12 -45 -3 -20 -10 -41 -15 -46 -12 -18 12 -8 33 21 45 36 15 42 23 34 44 -8 22 -21 20 -77 -13z"/>
<path d="M2105 2490 c-49 -32 -91 -63 -93 -68 -1 -4 8 -14 22 -21 18 -10 29 -10 45 -2 30 17 94 -30 85 -63 -7 -28 32 -68 45 -47 5 7 19 60 31 117 22 101 22 105 5 124 -10 11 -25 20 -34 20 -9 -1 -56 -27 -106 -60z m89 -37 c-10 -41 -22 -50 -41 -31 -15 16 -15 18 8 37 33 28 41 26 33 -6z"/>
<path d="M679 2477 c-15 -6 -45 -29 -69 -49 l-42 -37 62 -73 c34 -40 68 -79 75 -87 11 -11 21 -7 64 30 82 71 90 127 28 187 -38 36 -81 47 -118 29z m75 -78 c30 -36 31 -42 10 -74 -21 -32 -30 -31 -62 7 -54 63 -56 68 -36 83 30 23 60 17 88 -16z"/>
<path d="M2290 2340 c-71 -78 -72 -81 -55 -100 10 -11 21 -20 25 -20 4 0 40 36 80 80 70 78 72 81 55 100 -10 11 -21 20 -25 20 -5 0 -40 -36 -80 -80z"/>
<path d="M1398 2343 c-19 -27 -43 -60 -53 -75 l-17 -27 63 -31 c34 -16 63 -30 65 -30 5 0 84 128 84 137 0 6 -12 25 -26 42 -39 47 -72 42 -116 -16z"/>
<path d="M2394 2272 c-34 -27 -72 -55 -84 -63 -22 -15 -23 -16 -5 -42 l17 -27 49 36 c54 39 56 37 34 -46 -18 -67 -18 -80 0 -104 13 -17 18 -15 100 44 47 35 88 66 91 71 6 10 -17 49 -29 49 -5 0 -27 -14 -49 -31 -21 -17 -41 -29 -44 -27 -2 3 3 38 13 77 18 74 13 103 -18 108 -8 1 -42 -19 -75 -45z"/>
<path d="M1520 2241 c-22 -33 -40 -62 -40 -64 0 -2 18 -16 39 -30 32 -21 40 -34 43 -61 l3 -34 47 61 c64 85 68 105 28 151 -47 53 -71 49 -120 -23z"/>
<path d="M448 2245 c-10 -13 -18 -26 -18 -29 0 -2 22 -40 48 -83 72 -116 78 -127 58 -120 -11 5 -22 -5 -36 -33 -21 -40 -46 -52 -56 -26 -3 8 2 29 11 46 14 27 15 34 3 41 -24 15 -34 10 -47 -26 -12 -34 -33 -46 -46 -25 -3 5 1 26 10 46 15 37 10 53 -18 54 -13 0 -70 -132 -60 -139 18 -14 193 -95 196 -90 3 2 25 48 51 102 38 80 45 101 36 118 -16 30 31 92 63 83 26 -6 67 30 51 45 -7 6 -214 62 -226 61 -2 0 -11 -11 -20 -25z m124 -63 c5 -5 0 -16 -10 -25 -17 -16 -20 -15 -42 15 l-23 31 34 -7 c18 -3 37 -10 41 -14z"/>
<path d="M1202 2099 l-83 -120 37 -67 c39 -70 124 -202 168 -262 l26 -35 -55 -235 c-30 -129 -55 -240 -55 -247 0 -6 29 -25 64 -41 61 -29 142 -96 164 -137 6 -11 13 -17 16 -15 5 5 53 352 75 544 6 49 14 92 17 95 4 3 3 -23 0 -59 -48 -457 -62 -601 -58 -605 2 -2 22 19 43 48 21 29 64 70 95 93 l55 40 -1 220 -1 219 31 57 c17 31 39 81 50 112 24 70 37 176 22 176 -6 0 -13 -4 -16 -9 -3 -5 -26 -21 -51 -36 l-45 -26 -43 35 c-52 42 -117 73 -176 82 l-44 7 47 -57 c51 -63 80 -114 107 -193 27 -81 9 -63 -36 35 -50 108 -98 169 -175 224 -60 42 -73 58 -45 58 10 0 15 10 15 32 l0 31 24 -22 c51 -48 145 -36 165 21 6 17 11 35 11 40 0 12 -224 118 -248 118 -10 -1 -49 -47 -100 -121z"/>
<path d="M1606 2074 c-47 -63 -86 -120 -86 -125 0 -11 86 -52 99 -47 5 2 43 44 85 93 67 79 76 94 71 120 -6 34 -29 60 -61 69 -19 6 -34 -10 -108 -110z"/>
<path d="M1729 1988 c-41 -46 -78 -86 -84 -90 -6 -4 4 -22 24 -42 l34 -35 41 31 c69 53 136 121 136 139 0 21 -47 79 -64 79 -7 0 -46 -37 -87 -82z"/>
<path d="M2565 2035 c-18 -17 -25 -35 -25 -64 0 -65 -42 -67 -44 -2 -1 17 -4 31 -8 31 -45 0 -52 -62 -12 -109 47 -56 108 -32 120 47 3 26 9 51 11 55 9 16 33 -16 33 -45 0 -23 4 -29 16 -24 9 3 18 6 20 6 9 0 4 60 -7 83 -10 23 -46 47 -70 47 -5 0 -21 -11 -34 -25z"/>
<path d="M1050 2010 c-17 -31 -8 -41 18 -21 21 15 22 19 8 30 -12 10 -17 9 -26 -9z"/>
<path d="M1420 1991 c-83 -7 -82 -11 3 -35 62 -18 76 -14 98 26 8 14 6 18 -8 16 -10 -1 -52 -4 -93 -7z"/>
<path d="M2026 1977 c-3 -12 -6 -31 -6 -42 0 -18 2 -18 20 5 23 30 25 46 6 53 -9 4 -16 -3 -20 -16z"/>
<path d="M934 1974 c3 -9 6 -22 6 -30 0 -23 14 -16 32 16 l17 30 -31 0 c-23 0 -29 -4 -24 -16z"/>
<path d="M1910 1952 c0 -5 7 -17 15 -28 14 -18 14 -18 15 9 0 17 -5 27 -15 27 -8 0 -15 -4 -15 -8z"/>
<path d="M1051 1896 c-15 -18 -10 -29 12 -24 9 2 12 9 8 21 -6 17 -8 18 -20 3z"/>
<path d="M2683 1873 c-9 -3 -11 -17 -7 -42 l6 -37 -76 -18 c-42 -10 -78 -21 -81 -26 -3 -5 -1 -20 4 -33 l10 -25 76 19 c42 11 80 17 85 14 6 -4 10 -17 10 -30 0 -30 8 -35 43 -28 21 4 26 10 21 22 -3 9 -16 54 -28 101 -22 83 -32 96 -63 83z"/>
<path d="M280 1857 c-16 -8 -30 -29 -40 -57 -8 -25 -18 -46 -22 -48 -5 -2 -8 -14 -8 -26 0 -19 12 -25 111 -49 62 -15 113 -26 115 -25 1 2 5 15 9 30 6 25 4 28 -34 38 -47 12 -54 37 -13 46 72 16 82 23 82 57 0 20 -33 23 -75 7 -22 -8 -30 -7 -43 9 -23 26 -52 33 -82 18z m48 -81 c5 -25 -9 -35 -36 -25 -19 7 -21 12 -12 29 13 25 43 23 48 -4z"/>
<path d="M2049 1852 c-15 -16 -13 -20 27 -60 54 -53 66 -38 24 28 -18 28 -33 50 -34 49 0 0 -8 -8 -17 -17z"/>
<path d="M916 1823 c-14 -21 -26 -43 -26 -50 0 -23 28 -14 48 15 31 45 32 49 18 61 -12 10 -19 5 -40 -26z"/>
<path d="M1877 1825 c-5 -10 0 -15 14 -15 12 0 19 5 17 12 -6 18 -25 20 -31 3z"/>
<path d="M806 1764 c-26 -36 -45 -68 -42 -71 12 -12 64 27 94 71 37 55 39 66 14 66 -11 0 -37 -26 -66 -66z"/>
<path d="M1972 1795 c-10 -12 -8 -22 14 -55 15 -23 35 -40 45 -40 24 0 24 -2 -7 59 -27 55 -32 58 -52 36z"/>
<path d="M2040 1774 c0 -23 79 -134 95 -134 23 0 18 15 -26 85 -39 62 -69 83 -69 49z"/>
<path d="M910 1730 c-25 -29 -57 -66 -72 -81 -30 -29 -27 -39 8 -39 30 0 117 118 112 152 -3 20 -8 16 -48 -32z"/>
<path d="M2140 1714 c0 -3 4 -14 10 -24 10 -19 96 -57 106 -47 4 3 19 0 35 -9 28 -14 36 -10 21 12 -7 11 -146 74 -163 74 -5 0 -9 -3 -9 -6z"/>
<path d="M608 1648 c-73 -46 -83 -59 -68 -88 10 -20 5 -23 110 74 14 13 33 26 43 29 19 7 14 27 -6 27 -7 0 -42 -19 -79 -42z"/>
<path d="M738 1662 c-49 -19 -68 -32 -68 -44 0 -23 1 -23 90 10 46 17 75 33 75 42 0 23 -24 20 -97 -8z"/>
<path d="M2090 1622 c0 -19 29 -41 91 -66 37 -16 75 -26 84 -24 39 7 23 26 -47 55 -84 35 -128 47 -128 35z"/>
<path d="M2253 1615 c-7 -19 -13 -14 66 -59 58 -34 91 -40 91 -18 0 7 -133 92 -145 92 -3 0 -8 -7 -12 -15z"/>
<path d="M700 1585 c-42 -22 -90 -72 -90 -94 0 -12 122 62 141 85 23 28 -5 33 -51 9z"/>
<path d="M2381 1601 c-11 -7 -10 -12 8 -22 12 -8 34 -36 47 -64 14 -27 33 -61 44 -75 18 -24 19 -24 26 -5 6 14 -4 41 -33 95 -40 75 -61 91 -92 71z"/>
<path d="M546 1505 c-44 -60 -51 -86 -23 -85 13 1 103 124 100 137 -6 25 -34 6 -77 -52z"/>
<path d="M2320 1523 c0 -11 70 -132 81 -139 36 -22 10 76 -31 118 -27 26 -50 36 -50 21z"/>
<path d="M444 1425 c-21 -69 -24 -88 -14 -100 7 -8 15 -15 19 -15 3 0 14 30 24 68 10 37 25 79 33 94 19 35 18 38 -11 38 -22 0 -27 -8 -51 -85z"/>
<path d="M557 1428 c-29 -45 -40 -134 -15 -126 10 4 57 135 58 161 0 18 -18 4 -43 -35z"/>
<path d="M2435 1440 c-11 -18 45 -170 62 -170 20 0 14 41 -17 123 -21 56 -32 68 -45 47z"/>
<path d="M480 1307 c0 -78 12 -137 27 -137 11 0 13 18 11 87 -3 74 -6 88 -20 91 -15 3 -18 -4 -18 -41z"/>
<path d="M2519 1327 c11 -27 2 -155 -10 -163 -19 -11 -7 -25 19 -22 26 3 27 5 35 91 8 94 2 117 -34 117 -15 0 -17 -4 -10 -23z"/>
<path d="M2426 1279 c-3 -34 -6 -74 -6 -88 l1 -26 24 28 c28 31 30 48 14 98 -19 56 -26 53 -33 -12z"/>
<path d="M845 1270 l-29 -30 49 -50 c56 -57 112 -79 250 -100 127 -19 198 -46 270 -100 47 -36 60 -42 49 -25 -20 31 -100 90 -148 110 -20 8 -67 22 -104 30 -116 24 -183 54 -229 101 -24 24 -45 55 -49 69 -8 33 -24 32 -59 -5z"/>
<path d="M2111 1263 c-41 -80 -104 -118 -258 -156 -128 -31 -179 -57 -240 -120 l-48 -51 47 37 c73 58 161 94 273 112 173 28 241 57 290 121 l27 36 -28 29 c-15 16 -31 29 -36 29 -4 0 -16 -17 -27 -37z"/>
<path d="M540 1211 c0 -26 9 -42 40 -74 68 -68 68 -14 0 63 l-39 45 -1 -34z"/>
<path d="M435 1210 c-23 -25 -15 -42 54 -119 36 -41 52 -53 65 -48 17 7 16 9 -8 28 -14 11 -26 27 -26 34 0 7 -11 27 -25 43 -14 17 -25 42 -25 56 0 31 -11 33 -35 6z"/>
<path d="M762 1181 l-32 -39 31 -27 c77 -64 120 -75 319 -85 129 -6 176 -12 218 -28 28 -11 52 -18 52 -15 0 16 -130 58 -241 78 -153 28 -224 58 -269 116 -18 21 -35 39 -39 39 -4 0 -22 -18 -39 -39z"/>
<path d="M2175 1174 c-50 -56 -124 -86 -265 -109 -108 -18 -191 -44 -226 -70 -12 -9 1 -7 36 7 43 16 91 22 220 28 91 5 179 13 195 18 41 13 105 47 133 72 l24 20 -32 40 c-17 22 -35 40 -38 39 -4 -1 -25 -21 -47 -45z"/>
<path d="M2431 1148 c-50 -61 -56 -78 -34 -85 13 -5 115 117 110 131 -8 25 -29 12 -76 -46z"/>
<path d="M2347 1120 c-15 -12 -28 -16 -32 -11 -3 6 -31 -8 -62 -30 -80 -56 -139 -70 -301 -74 -140 -3 -199 -13 -264 -46 -60 -30 -52 -38 12 -13 81 33 184 44 310 34 62 -5 136 -5 179 1 85 10 161 42 161 68 0 9 11 33 25 54 29 42 15 51 -28 17z"/>
<path d="M546 1123 c-15 -15 -3 -33 44 -64 53 -36 58 -49 35 -89 -23 -40 -18 -49 38 -64 93 -25 148 -27 312 -6 214 27 294 26 368 -4 31 -13 57 -22 57 -20 0 2 -19 14 -42 28 -78 45 -118 50 -358 51 l-225 0 -58 29 c-55 27 -77 49 -63 63 3 3 14 -1 23 -9 60 -52 171 -71 337 -58 131 11 234 -1 315 -36 l56 -24 -29 24 c-50 42 -124 58 -279 62 -171 4 -250 24 -316 81 l-43 37 -19 -25 c-10 -13 -19 -27 -19 -31 0 -15 -27 -7 -61 18 -47 35 -65 44 -73 37z"/>
<path d="M2421 1056 c-13 -13 -57 -41 -99 -63 l-75 -38 -231 0 c-245 -1 -280 -6 -363 -57 -47 -28 -41 -31 15 -6 71 31 171 34 370 9 170 -21 229 -21 317 1 57 14 66 24 53 54 -11 23 -9 28 20 50 31 24 42 57 23 68 -4 3 -18 -5 -30 -18z"/>
<path d="M1360 976 c0 -2 8 -10 18 -17 15 -13 16 -12 3 4 -13 16 -21 21 -21 13z"/>
<path d="M595 885 c-3 -8 -7 -22 -10 -30 -4 -13 49 -15 400 -17 223 -2 405 0 405 3 0 4 -24 17 -52 30 -65 29 -170 30 -358 4 -140 -20 -270 -16 -338 9 -37 13 -43 14 -47 1z"/>
<path d="M1730 887 c-25 -7 -58 -21 -75 -30 -28 -15 -7 -16 378 -17 l407 0 -6 28 c-4 15 -8 28 -9 30 -1 1 -22 -5 -46 -14 -67 -24 -198 -29 -334 -11 -187 25 -265 28 -315 14z"/>
<path d="M1470 870 c-32 -32 -24 -40 40 -40 33 0 60 4 60 10 0 17 -39 50 -60 50 -11 0 -29 -9 -40 -20z"/>
<path d="M830 496 l0 -226 119 0 c117 0 121 1 166 31 25 17 57 47 73 66 25 34 27 44 27 129 0 86 -2 95 -30 135 -48 68 -89 83 -232 88 l-123 3 0 -226z m241 105 c26 -26 29 -36 29 -90 0 -101 -27 -131 -115 -131 l-45 0 0 125 0 125 51 0 c43 0 55 -5 80 -29z"/>
<path d="M1290 496 l0 -226 60 0 60 0 0 96 c0 94 0 95 23 89 33 -10 60 -47 87 -120 l24 -65 58 0 c42 0 58 4 58 13 0 21 -50 139 -71 169 -19 27 -19 27 7 55 23 25 26 34 22 86 -4 49 -9 63 -36 90 l-32 32 -130 3 -130 4 0 -226z m207 117 c7 -9 13 -23 13 -30 0 -23 -39 -53 -70 -53 -30 0 -30 0 -30 56 l0 57 37 -6 c21 -4 44 -14 50 -24z"/>
<path d="M1710 495 l0 -225 55 0 54 0 3 133 3 132 53 -72 c30 -40 55 -73 57 -73 2 0 25 29 50 65 26 36 51 65 56 65 5 0 9 -56 9 -125 l0 -125 55 0 55 0 0 225 0 225 -52 0 -53 -1 -55 -75 c-30 -42 -58 -77 -61 -79 -3 -3 -32 32 -64 75 l-59 80 -53 0 -53 0 0 -225z"/>
</g>
</svg>