<svg viewBox="0 0 20 20" fill="currentColor"
  xmlns="http://www.w3.org/2000/svg">
  <path d="M2.60686 5V11.558H3.66592V9.27698L5.25452 11.558H6.51725L4.72498 8.99185L6.39505 7.03666H5.13232L3.66592 8.74745V5H2.60686Z" />
  <path d="M8.43172 10.9063C9.20563 10.9063 9.28711 10.1324 9.28711 9.27696C9.28711 8.42156 9.16492 7.64763 8.43172 7.64763C7.65776 7.64763 7.57629 8.42156 7.57629 9.27696C7.57629 10.1324 7.65776 10.9063 8.43172 10.9063ZM6.43576 9.27696C6.43576 7.81056 7.12822 6.91443 8.43172 6.91443C9.73516 6.91443 10.4276 7.81056 10.4276 9.27696C10.4276 10.7434 9.73516 11.6395 8.43172 11.6395C7.12822 11.6395 6.43576 10.7841 6.43576 9.27696Z" />
  <path d="M12.8717 10.9063C13.5642 10.9063 13.6456 10.0102 13.6456 9.27699C13.6456 8.46232 13.5642 7.60693 12.8717 7.60693C12.2199 7.60693 12.057 8.54378 12.057 9.27699C12.057 10.4175 12.2199 10.9063 12.8717 10.9063ZM12.057 7.56619C12.2199 7.32179 12.5459 6.91446 13.2383 6.91446C14.3381 6.91446 14.7862 7.85132 14.7862 9.27699C14.7862 10.5397 14.3381 11.6395 12.8717 11.6395C11.6904 11.6395 10.998 10.947 10.998 9.60285V5H12.057V7.56619Z" />
  <path d="M17.3116 10.9063C18.0855 10.9063 18.167 10.1324 18.167 9.27696C18.167 8.42156 18.0448 7.64763 17.3116 7.64763C16.5376 7.64763 16.4562 8.42156 16.4562 9.27696C16.4154 10.1324 16.5376 10.9063 17.3116 10.9063ZM15.3156 9.27696C15.3156 7.81056 16.0081 6.91443 17.3116 6.91443C18.615 6.91443 19.3075 7.81056 19.3075 9.27696C19.3075 10.7434 18.615 11.6395 17.3116 11.6395C16.0081 11.6395 15.3156 10.7841 15.3156 9.27696Z" />
  <path d="M15.3564 13.1058C14.1344 13.1058 13.279 13.1466 12.8309 13.1873C12.3828 13.2688 11.9755 13.391 11.6089 13.5947C11.1609 13.839 10.8757 14.2057 10.7535 14.6129H10.6313C10.5498 14.2464 10.3055 13.9205 9.89812 13.6762C9.57226 13.4725 9.20562 13.3502 8.75758 13.228C8.30953 13.1466 7.73926 13.1058 7.0468 13.1058H5.41747H3.25861C2.81055 13.1058 2.44394 13.1058 2.07735 13.1058L0.162888 14.2057C0.651686 14.2464 1.18122 14.2871 1.79222 14.2871H3.50301L6.0692 14.2464L7.94289 14.2057C8.75758 14.2057 9.36859 14.3279 9.77594 14.5315C10.1833 14.7352 10.4277 15.1018 10.5091 15.6313H10.835C10.9165 15.2647 11.0794 14.9796 11.283 14.7352C11.4867 14.5315 11.7311 14.4093 12.057 14.2871C12.3828 14.2057 12.8309 14.1649 13.4012 14.1649H14.9898H16.171V13.0244L15.3564 13.1058Z" />
  <path d="M18.0448 13.1059H16.9043V14.2464H18.0448V13.1059Z" />
  <path d="M19.837 13.1059H18.6965V14.2464H19.837V13.1059Z" />
</svg>