<svg viewBox="0 0 20 20" fill="currentColor"
    xmlns="http://www.w3.org/2000/svg">
    <path d="M17.6501 3H8.71102C8.08938 3.00164 7.49358 3.25009 7.05345 3.69119C6.61333 4.1323 6.36458 4.73027 6.36139 5.35489H11.2833C11.6936 5.35308 12.1002 5.43264 12.4798 5.58908C12.8593 5.74552 13.2045 5.97564 13.4953 6.26639C13.7862 6.55708 14.0171 6.90264 14.1748 7.2832C14.3324 7.66383 14.4138 8.07189 14.4141 8.48414V13.0475H15.1224L15.9571 14.4966C16.1184 14.7768 16.3821 14.7787 16.5431 14.4966L17.3778 13.0444H17.6513C18.2734 13.0415 18.8693 12.7918 19.3092 12.3497C19.7492 11.9075 19.9974 11.3087 20.0001 10.6836V5.34114C20.0001 4.04282 18.9423 3 17.6501 3Z" />
    <path fill-rule="evenodd" clip-rule="evenodd" d="M11.2816 6.13978H2.35119C2.04275 6.13878 1.7372 6.19897 1.45198 6.31691C1.16677 6.43478 0.907516 6.6081 0.689088 6.82685C0.470669 7.04566 0.297362 7.30559 0.179112 7.59178C0.0608688 7.87797 0 8.18478 0 8.49466V13.8179C4.375e-05 14.4348 0.240406 15.0273 0.669663 15.4686C1.09891 15.9097 1.68297 16.1646 2.29687 16.1786L3.22269 17.7879C3.384 18.068 3.64769 18.072 3.80863 17.7914L4.73363 16.1873H11.2816C11.9059 16.1858 12.5041 15.9354 12.9449 15.4911C13.3858 15.047 13.6331 14.4451 13.6328 13.8179V8.49466C13.6328 8.18478 13.572 7.87797 13.4537 7.59178C13.3355 7.30559 13.1621 7.04566 12.9437 6.82685C12.7253 6.6081 12.4661 6.43478 12.1808 6.31691C11.8956 6.19897 11.5901 6.13878 11.2816 6.13978ZM4.95995 12.725C4.75208 12.725 4.58164 12.6925 4.44852 12.6275C4.31539 12.5594 4.21633 12.47 4.15139 12.3597C4.08645 12.2493 4.05395 12.1275 4.05395 11.9944C4.05395 11.7704 4.14164 11.5885 4.31702 11.4488C4.49233 11.3092 4.75533 11.2394 5.10602 11.2394H5.71977V11.181C5.71977 11.0154 5.6727 10.8936 5.57852 10.8157C5.48433 10.7377 5.36745 10.6988 5.22783 10.6988C5.1012 10.6988 4.99077 10.7296 4.89658 10.7913C4.80245 10.8497 4.74402 10.9375 4.72127 11.0543H4.11239C4.12864 10.879 4.18708 10.7264 4.28777 10.5964C4.3917 10.4666 4.52483 10.3676 4.68714 10.2994C4.84952 10.2279 5.03139 10.1922 5.2327 10.1922C5.57689 10.1922 5.84802 10.2783 6.04608 10.4503C6.24414 10.6224 6.3432 10.866 6.3432 11.181V12.6665H5.81233L5.75383 12.2769C5.68239 12.4068 5.58177 12.5139 5.45189 12.5983C5.3252 12.6828 5.16127 12.725 4.95995 12.725ZM5.1012 12.2379C5.27977 12.2379 5.41777 12.1794 5.5152 12.0625C5.61583 11.9457 5.67914 11.8011 5.70514 11.6291H5.17427C5.00864 11.6291 4.89014 11.6599 4.8187 11.7216C4.74727 11.78 4.71152 11.8532 4.71152 11.9408C4.71152 12.035 4.74727 12.108 4.8187 12.16C4.89014 12.2119 4.98427 12.2379 5.1012 12.2379ZM8.27023 11.7188C8.50719 11.4621 8.69477 11.1528 8.83625 10.7809H7.68126C7.82273 11.1363 8.01688 11.4522 8.27023 11.7188ZM9.77086 10.3992V10.7809H9.29695C9.1193 11.2679 8.87906 11.6661 8.57633 11.9952C8.91523 12.2552 9.32992 12.4493 9.83008 12.5611C9.73461 12.6566 9.60961 12.8409 9.55039 12.9528C9.02055 12.8179 8.59273 12.5974 8.24727 12.3046C7.88859 12.5908 7.46407 12.8047 6.96388 12.9627C6.91776 12.8607 6.79601 12.6764 6.71707 12.5809C7.20407 12.4526 7.61545 12.265 7.94773 12.0117C7.65163 11.6727 7.42457 11.2614 7.24688 10.7809H6.77626V10.3992H8.06625V9.87924H8.46445V10.3992H9.77086Z" />
</svg>
