<svg
  class="w-6 h-6"
  viewBox="0 0 256 256"
  xmlns="http://www.w3.org/2000/svg"
  fill="currentColor"
>
  <path
    d="M196.617 70.6879C196.517 73.7951 196.417 79.8089 196.417 84.0186C196.392 88.2282 196.317 93.7158 196.216 96.1965C196.041 101.408 196.292 101.108 193.339 99.6795C190.861 98.4517 187.058 97.1988 183.279 96.3218C176.497 94.7432 169.59 95.6202 163.159 98.8025C155.852 102.436 150.397 108.625 147.894 116.092C146.618 119.901 146.318 122.006 146.293 127.393C146.293 131.528 146.368 132.68 146.843 134.935C148.145 141.175 150.772 145.81 155.677 150.571C158.605 153.403 160.031 154.405 163.61 156.209C167.038 157.938 170.141 158.891 173.87 159.392C176.572 159.742 177.448 159.768 179.926 159.517C184.98 158.991 189.36 157.437 193.814 154.581C194.765 153.954 195.616 153.453 195.691 153.453C195.791 153.453 195.966 154.38 196.116 155.483C196.442 157.863 196.842 158.414 198.469 158.715C199.695 158.941 201.922 158.615 202.322 158.139C202.598 157.813 202.423 96.9232 202.072 76.1756L201.897 64.9999H199.319H196.767L196.617 70.6879ZM184.555 102.561C187.158 103.188 188.484 103.664 191.687 105.042C193.138 105.668 194.715 106.245 195.19 106.32L196.066 106.47L196.241 109.728C196.342 111.532 196.417 121.054 196.367 130.901L196.317 148.792L195.266 149.093C194.69 149.268 193.239 149.87 192.012 150.446C186.957 152.827 183.829 153.528 178.049 153.553C174.345 153.553 173.87 153.503 171.793 152.852C167.939 151.649 164.135 149.694 161.933 147.765C156.678 143.129 153.825 137.717 152.649 130.149C151.873 125.013 152.949 119.45 155.702 114.438C157.979 110.304 161.633 106.921 166.588 104.39C170.717 102.286 173.194 101.809 178.925 101.985C181.302 102.035 183.254 102.26 184.555 102.561Z"
  />
  <path
    d="M28.0274 95.4948C24.4989 96.021 18.9185 97.7499 16.1658 99.1281C14.0888 100.181 11.1859 102.285 9.38416 104.014C5.70557 107.572 3.92884 110.329 1.95191 115.616C0.625611 119.149 0.250244 121.605 0.250244 126.767C0.250244 135.436 1.85181 140.523 6.83167 147.765C8.05787 149.569 11.8366 153.202 13.8135 154.48C17.392 156.786 23.0976 158.966 26.9013 159.492C29.654 159.843 35.7849 159.642 37.912 159.116C45.6946 157.211 50.2491 154.781 54.8536 150.045C58.357 146.437 60.2088 143.054 61.6602 137.591C63.8123 129.598 63.462 123.259 60.459 115.791C59.3079 112.935 59.0076 112.409 57.2559 109.778C52.3761 102.486 43.9429 97.1235 35.2094 95.6952C33.1073 95.3444 29.5539 95.2442 28.0274 95.4948ZM38.5126 102.837C42.7167 104.014 48.147 107.923 51.15 111.857C52.5763 113.737 53.6023 115.616 54.7034 118.422C56.0297 121.83 56.3801 124.211 56.2549 129.022C56.1298 133.407 55.7044 135.211 53.9277 139.02C53.1769 140.648 52.6514 141.425 50.4242 144.332C46.6706 149.268 39.8639 153.052 33.4827 153.779C30.5548 154.104 26.626 153.703 23.9734 152.801C21.2958 151.899 17.5421 149.82 15.4901 148.091C13.1629 146.136 9.80958 141.726 8.75855 139.245C8.33314 138.243 7.70753 136.213 7.33216 134.735C6.7566 132.354 6.68152 131.528 6.68152 127.894C6.68152 124.11 6.7566 123.509 7.45728 120.803C8.23304 117.796 9.23402 115.666 10.8856 113.486C11.3611 112.86 11.7615 112.283 11.7615 112.183C11.7615 111.707 16.1908 107.598 17.9175 106.47C23.4729 102.837 26.3758 102.035 33.2825 102.21C35.7349 102.285 37.1613 102.461 38.5126 102.837Z"
  />
  <path
    d="M97.9705 95.6953C97.0196 95.8707 95.368 96.2717 94.342 96.5723C93.316 96.873 92.1398 97.1988 91.7144 97.299C91.314 97.4243 89.6374 98.1009 87.9858 98.8275C84.7326 100.281 84.9578 100.306 84.057 98.4015C83.7817 97.8002 83.3563 97.2238 83.131 97.0986C82.9058 96.9733 81.6796 96.7979 80.4284 96.6976L78.1512 96.5222L78.001 101.258C77.8259 107.573 78.0511 186.429 78.2763 188.659L78.4515 190.413H81.1291C82.5805 190.413 83.8818 190.313 83.9819 190.212C84.107 190.112 84.2321 182.344 84.2822 172.998C84.3823 156.761 84.4073 155.959 84.8577 155.959C85.108 155.959 85.6085 156.084 85.9838 156.209C88.4362 157.136 95.2679 159.041 97.2949 159.341C103.401 160.269 106.779 160.068 112.034 158.464C119.592 156.134 125.998 151.072 129.902 144.307C130.803 142.753 132.479 138.995 132.905 137.592C133.33 136.238 134.106 131.503 134.256 129.323C134.431 127.092 133.931 122.131 133.255 119.5C131.929 114.363 128.55 108.324 124.972 104.741C120.818 100.556 114.061 97.0735 107.53 95.6703C105.428 95.2443 100.373 95.2443 97.9705 95.6953ZM107.355 102.686C109.557 103.238 112.084 104.265 114.236 105.518C116.714 106.946 117.064 107.222 119.191 109.302C122.97 112.985 125.497 117.42 126.423 121.88C127.049 125.013 126.974 132.831 126.248 135.412C125.698 137.466 123.846 141.425 122.67 143.054C121.393 144.883 118.215 148.091 116.614 149.193C113.386 151.398 109.156 153.052 105.603 153.503C102.625 153.879 97.2198 153.603 94.7174 152.952C89.8626 151.699 86.5344 150.496 85.0579 149.419L84.3322 148.918V127.694V106.445L86.4593 105.618C89.7125 104.34 93.7915 103.062 95.7183 102.711C98.0957 102.26 105.578 102.26 107.355 102.686Z"
  />
  <path
    d="M234.854 95.57C233.003 95.7454 229.499 96.6976 227.647 97.5245C225.971 98.2762 222.968 100.381 221.917 101.534C219.489 104.24 217.763 108.124 217.537 111.482C217.412 113.185 217.863 115.516 218.764 117.997C219.289 119.425 221.241 122.106 222.542 123.234C225.045 125.338 229.599 127.769 235.63 130.149C237.407 130.851 240.36 132.179 242.187 133.106C245.089 134.535 245.74 134.986 247.091 136.439C249.293 138.769 250.044 140.398 250.069 142.879C250.094 144.583 249.994 144.984 249.268 146.437C248.743 147.464 247.767 148.717 246.641 149.845C245.215 151.273 244.489 151.774 242.962 152.401C239.359 153.904 234.404 154.029 229.224 152.801C226.822 152.225 220.941 150.045 218.664 148.918C217.212 148.191 216.712 148.266 216.712 149.243C216.737 150.697 217.337 153.603 217.763 154.255C218.513 155.382 225.846 158.264 230.35 159.216C233.878 159.943 236.756 160.068 239.384 159.617C244.639 158.69 248.468 156.761 251.646 153.428C254.774 150.12 255.75 147.69 255.75 143.204C255.75 137.14 253.623 133.131 248.668 129.824C246.215 128.195 242.887 126.366 241.01 125.639C240.26 125.338 239.184 124.912 238.633 124.637C238.058 124.386 236.431 123.71 234.98 123.133C227.222 120.051 223.443 116.393 223.393 111.983C223.368 109.903 223.794 108.851 225.47 106.746C227.772 103.839 230.375 102.386 234.679 101.559C238.983 100.732 245.84 102.586 250.895 105.919C251.871 106.57 252.797 107.096 252.947 107.096C253.122 107.096 253.423 106.821 253.648 106.47C254.223 105.568 254.023 102.336 253.322 101.383C251.646 99.1031 244.188 96.0461 239.109 95.545C237.882 95.4197 236.806 95.3445 236.731 95.3696C236.656 95.3696 235.83 95.4698 234.854 95.57Z"
  />
</svg>
