<svg width="280" height="39" fill="none" xmlns="http://www.w3.org/2000/svg"><path d="M36.7 4h-6.3L18.35 22.15 6.25 4H0v34h8.45L8.4 20.85 16 32.6v.05h4.7v-.05l7.55-11.65V38h8.45V4zm29.906 21.35c0-7.3-5.35-12.15-12.4-12.15-7.75 0-12.9 5.3-12.9 12.65 0 7.4 5.3 12.7 13.25 12.7 6 0 10.65-3.15 11.8-8.15h-8c-.7 1.1-2 1.75-3.7 1.75-3.1 0-4.8-1.7-5.45-3.9h17.3l-.05-.15c.15-.9.15-1.85.15-2.75zm-12.4-5.9c2.6 0 4.35 1.4 4.8 4.05h-9.9c.6-2.45 2.35-4.05 5.1-4.05zM75.1 9.95c2.6 0 4.75-1.95 4.75-4.55 0-2.65-2.15-4.6-4.75-4.6-2.65 0-4.75 1.95-4.75 4.6 0 2.6 2.1 4.55 4.75 4.55zm4.1 3.8h-8.1V38h8.1V13.75zM92.946 2.5h-8.1V38h8.1V2.5zm9.752 7.45c2.6 0 4.75-1.95 4.75-4.55 0-2.65-2.15-4.6-4.75-4.6-2.65 0-4.75 1.95-4.75 4.6 0 2.6 2.1 4.55 4.75 4.55zm4.1 3.8h-8.1V38h8.1V13.75zm19.745-10.5c-8 0-13.5 4.3-13.5 11.1 0 5.4 3.15 8.55 9.85 10l5.6 1.25c2.9.55 3.6 1.75 3.6 2.9 0 1.85-1.65 3-4.8 3-4 0-6.6-1.8-7.15-4.8h-8.45c.8 8.4 7.7 12 15.35 12 8.5 0 14.1-4.25 14.1-11.05 0-5.85-4.05-8.35-10.25-9.7l-4.75-1.1c-2.55-.55-3.9-1.35-3.9-3.2 0-2.2 1.95-3.4 4.85-3.4 3.45 0 5.05 1.75 5.5 4.3h8.5c-.85-9.15-9.05-11.3-14.55-11.3zm43.381 22.1c0-7.3-5.35-12.15-12.4-12.15-7.75 0-12.9 5.3-12.9 12.65 0 7.4 5.3 12.7 13.25 12.7 6 0 10.65-3.15 11.8-8.15h-8c-.7 1.1-2 1.75-3.7 1.75-3.1 0-4.8-1.7-5.45-3.9h17.3l-.05-.15c.15-.9.15-1.85.15-2.75zm-12.4-5.9c2.6 0 4.35 1.4 4.8 4.05h-9.9c.6-2.45 2.35-4.05 5.1-4.05zm42.542-5.7h-8.1v1.3c-1.8-1.15-4-1.85-6.65-1.85-6.55 0-12.05 5.4-12.05 12.65 0 7.2 5.5 12.65 12.05 12.65 2.65 0 4.85-.7 6.65-1.85V38h8.1V13.75zm-13.15 18.1c-3.3 0-5.7-2.65-5.7-6s2.4-6.05 5.7-6.05c1.8 0 3.55.55 5.05 2.3v7.5c-1.5 1.75-3.25 2.25-5.05 2.25zm35.081-18.5c-3.6 0-6.2 1.15-8.35 3v-2.6h-8.1V38h8.1V24.15c1.9-1.9 4.4-2.95 8.35-3.1v-7.7zm15.455 18.35c-3.45 0-5.55-2.55-5.55-5.85s2.1-5.8 5.55-5.8c2.5 0 4.35 1.45 4.75 3.65h7.65c-.55-6.25-5.7-10.5-12.4-10.5-7.65 0-13.25 5.3-13.25 12.65 0 7.4 5.6 12.7 13.25 12.7 6.7 0 11.85-4.25 12.4-10.5h-7.65c-.4 2.2-2.25 3.65-4.75 3.65zM268.94 13c-2.6 0-4.75.85-6.7 2.4V2.5h-8.1V38h8.1V22.8c1.4-1.6 3-2.45 4.5-2.45 2.65 0 4.4 1.65 4.4 5.1V38h8.15V24.15c0-6.9-4.2-11.15-10.35-11.15z" fill="#000"/></svg>