<svg width="256" height="52" viewBox="0 0 256 52"
  xmlns="http://www.w3.org/2000/svg">
  <path d="M49.792 4.86395C46.336 6.01595 44.032 8.06395 42.5813 11.2639C41.6426 13.3973 41.6 13.7813 41.6 25.8133C41.6 37.8879 41.6426 38.2293 42.624 40.4053C44.0746 43.6479 46.6346 45.8239 50.2613 46.8906C53.888 47.9999 54.0586 47.9999 57.5573 46.9333C61.8666 45.6533 64.128 43.6906 65.6213 40.0213C66.2186 38.4426 66.3466 36.4799 66.3466 25.8133C66.3466 13.6959 66.304 13.3973 65.3226 11.2213C63.872 7.97862 61.312 5.80262 57.6853 4.73595C54.0586 3.62662 53.4186 3.62662 49.792 4.86395ZM57.6 13.8666L58.6666 14.9333V26.0693V37.2053L57.2586 38.4426C55.296 40.1919 52.6506 40.1919 50.688 38.4426L49.28 37.2053V26.1119V15.0186L50.304 13.9093C52.3093 11.7759 55.4666 11.7333 57.6 13.8666Z" />
  <path d="M86.1866 4.82132C83.0719 5.88799 81.3653 7.03999 79.9999 9.08799C78.0799 11.9467 77.9519 12.9707 77.7386 24.576C77.6106 33.92 77.6959 36.1813 78.2933 38.4427C79.4879 43.1787 81.7066 45.44 86.6986 46.976C90.0693 48 90.3253 48 93.9519 46.8907C97.5786 45.824 100.181 43.648 101.504 40.576C102.315 38.6133 102.4 37.7173 102.4 25.856C102.443 13.824 102.4 13.184 101.504 11.0933C100.181 8.06399 97.4506 5.75999 93.8666 4.69332C90.3253 3.62666 89.6853 3.66932 86.1866 4.82132ZM92.9279 13.0987C94.8906 14.2933 95.1466 15.872 95.1466 26.0267C95.1466 36.1387 94.8906 37.632 92.9706 38.9973C92.4159 39.3813 91.1359 39.68 90.1119 39.68C88.5333 39.68 87.9786 39.424 86.7839 38.2293L85.3333 36.7787V26.2827C85.3333 14.976 85.5039 13.9093 87.5519 12.928C89.6853 11.8613 91.0506 11.904 92.9279 13.0987Z" />
  <path d="M6.27196 5.41873C5.5893 6.18673 5.54663 7.85073 5.54663 25.9414C5.54663 43.6481 5.63196 45.6534 6.27196 46.2934C6.8693 46.8907 7.8933 46.9761 14.2506 46.8481C20.5653 46.7201 21.8026 46.5921 23.4666 45.8241C30.0373 42.7947 32.2133 34.3894 28.1173 27.9467L26.8373 25.9414L28.1173 24.0641C32.2986 17.7494 29.8666 8.70406 23.168 5.67473C21.9306 5.12006 19.9253 4.9494 14.2933 4.77873C7.55196 4.60806 6.9973 4.65073 6.27196 5.41873ZM19.6266 13.1414C20.4373 13.5254 21.376 14.3361 21.6746 14.9334C22.528 16.5974 22.0586 19.4987 20.736 20.8641C19.712 21.8454 19.2853 21.9734 16.512 21.9734H13.44L13.312 17.7494C13.2693 15.4027 13.312 13.2267 13.3973 12.9281C13.7386 12.1174 17.8346 12.2027 19.6266 13.1414ZM20.0106 30.4641C22.784 31.9147 22.9546 36.3521 20.3093 38.4854C19.6693 39.0401 18.6026 39.2534 16.3413 39.2534H13.2266V34.8587C13.2266 32.4267 13.3546 30.2934 13.5253 30.1654C14.0373 29.6107 18.816 29.8667 20.0106 30.4641Z" />
  <path d="M114.603 5.63195C114.005 6.48528 113.92 9.13062 113.92 26.0693C113.92 48.5973 113.621 47.0613 118.016 46.848C120.192 46.72 120.576 46.592 121.045 45.6533C121.472 44.8426 121.557 40.2773 121.515 25.2586C121.387 3.15729 121.685 4.69328 117.504 4.69328C115.669 4.69328 115.115 4.86395 114.603 5.63195Z" />
  <path d="M137.003 5.24801C136.363 5.58935 134.101 9.17335 130.517 15.6587L124.971 25.6L126.123 27.8187C129.237 33.9627 135.851 45.5253 136.619 46.1653C137.259 46.72 138.24 46.9333 140.331 46.9333C143.232 46.9333 144.213 46.5067 144.213 45.184C144.213 44.8 141.867 40.2773 139.008 35.1573C136.107 30.0373 133.803 25.728 133.845 25.6C133.888 25.472 136.235 21.248 139.051 16.2133C141.909 11.1787 144.213 6.69868 144.213 6.31468C144.213 5.88801 143.829 5.37601 143.403 5.12001C142.251 4.52268 138.24 4.60801 137.003 5.24801Z" />
  <path d="M153.856 5.63201C153.259 6.48535 153.173 9.08801 153.173 25.8133C153.173 42.5387 153.259 45.1413 153.856 45.9947C154.496 46.9333 154.624 46.9333 165.547 46.9333C175.019 46.9333 176.683 46.848 177.237 46.2507C178.219 45.312 178.176 40.832 177.237 40.064C176.683 39.6373 174.464 39.424 168.789 39.2533L161.067 39.04V34.56V30.08L166.528 29.8667C172.8 29.6107 172.8 29.6107 172.8 25.984C172.8 22.6133 172.459 22.4427 166.229 22.1867L161.067 21.9733V17.28V12.5867L169.088 12.3733C175.573 12.2027 177.195 12.032 177.493 11.52C177.707 11.1787 177.92 9.81335 177.92 8.49068C177.92 4.60801 178.219 4.69335 165.419 4.69335C154.624 4.69335 154.496 4.69335 153.856 5.63201Z" />
  <path d="M190.123 5.37601C189.525 5.97335 189.44 8.40535 189.44 25.984C189.44 40.9173 189.568 46.0373 189.952 46.4213C190.336 46.8053 193.536 46.9333 201.643 46.9333C212.736 46.9333 212.864 46.9333 213.504 45.9947C214.443 44.672 214.357 41.728 213.376 40.4907C212.565 39.5093 212.309 39.4667 204.715 39.2533L196.907 39.04L196.779 35.0293C196.693 32.4693 196.821 30.848 197.163 30.464C197.547 29.9947 198.912 29.8667 202.709 29.8667C207.659 29.8667 207.787 29.824 208.469 28.8C209.28 27.5627 209.109 23.7653 208.256 22.912C207.957 22.6133 205.696 22.3147 202.325 22.1867L196.907 21.9733L196.779 17.7493C196.693 15.0187 196.821 13.3547 197.163 12.9707C197.547 12.5013 199.253 12.3733 205.269 12.3733H212.907L213.589 11.3067C214.528 9.85601 214.229 6.10135 213.077 5.24801C212.48 4.82135 209.835 4.69335 201.557 4.69335C192.341 4.69335 190.677 4.77868 190.123 5.37601Z" />
  <path d="M225.792 5.20524C225.408 5.58924 225.28 10.6666 225.28 25.4719C225.28 44.6719 225.323 45.2692 226.133 46.0799C227.243 47.1892 230.741 47.2746 232.064 46.1652C232.917 45.4826 232.96 45.0132 233.088 35.5839L233.173 25.6852L237.227 35.3706C239.445 40.6612 241.664 45.4399 242.219 45.9946C243.029 46.7626 243.627 46.9332 246.101 46.9332C250.795 46.9332 250.453 48.5972 250.453 25.8986V6.44257L249.344 5.58924C247.979 4.52257 244.651 4.35191 243.371 5.29057C242.603 5.88791 242.56 6.48524 242.56 15.9572C242.56 21.5039 242.475 26.0266 242.347 26.0266C242.219 26.0266 241.92 25.5146 241.664 24.8319C237.397 14.1226 233.984 6.44257 233.131 5.63191C232.235 4.86391 231.552 4.69324 229.163 4.69324C227.499 4.69324 226.091 4.90657 225.792 5.20524Z" />
</svg>