<svg width="116" height="128" viewBox="0 0 116 128" fill="none"
  xmlns="http://www.w3.org/2000/svg">
  <path d="M38.5877 0L0.255493 46.5093L56.987 113.463L94.808 68.9978L38.5877 0Z" />
  <path opacity="0.1" d="M38.5877 0L0.255493 46.5093L56.987 113.463L94.808 68.9978L38.5877 0Z" fill="black"/>
  <path d="M1.78882 47.0206C2.63671 45.4944 3.68813 44.0905 4.91418 42.8476L40.1209 7.15522C40.1209 7.15522 52.3872 5.11085 54.9427 11.244L9.96634 48.0428L1.78882 47.0206Z" fill="#F2F2F2"/>
  <path d="M0 46.2539L52.1316 125.985C52.1316 125.985 57.2426 129.562 62.3535 127.518L115.763 91.4857L59.0314 5.62183L7.92197 45.4872L0 46.2539Z" />
</svg>