<svg viewBox="0 0 20 20" fill="currentColor"
    xmlns="http://www.w3.org/2000/svg">
    <path d="M10.4492 0.781221C9.89452 0.85349 9.42577 0.921849 9.40429 0.931615C9.33788 0.968724 9.29491 1.02732 9.2832 1.10154C9.27734 1.1406 9.29491 1.36326 9.32421 1.59568C9.35351 1.83005 9.39843 2.20896 9.42773 2.43747C9.45507 2.66599 9.47265 2.8574 9.46679 2.86326C9.46288 2.86911 9.4414 2.83982 9.42187 2.80076C9.40038 2.75974 9.35937 2.70896 9.33007 2.68747C9.27538 2.64646 9.25585 2.64646 7.57227 2.6406C6.44922 2.63669 5.8457 2.64255 5.80078 2.65427C5.76172 2.66599 5.70508 2.70115 5.67383 2.73435L5.61523 2.7949L5.60938 3.5488L5.60352 4.30271L5.69727 4.29099C5.74805 4.28318 6.17773 4.26755 6.65039 4.25583C7.44727 4.2363 8.33398 4.24021 9.12695 4.27146L9.45312 4.28318V3.59763C9.45312 3.22068 9.45898 2.90818 9.46874 2.90232C9.47655 2.89841 9.89843 6.14255 10.4062 10.1133C10.9141 14.0859 11.3359 17.3476 11.3418 17.3633C11.3476 17.3789 11.3555 17.418 11.3594 17.4512C11.4004 17.7949 11.4512 18.166 11.4668 18.2148C11.4922 18.3008 11.5644 18.3613 11.6543 18.373C11.7324 18.3828 13.7051 18.1406 13.832 18.1055C13.9336 18.0762 14.0039 17.9863 14.0039 17.8848C14.0039 17.8398 13.9805 17.6094 13.9531 17.373C13.8516 16.5312 11.9512 1.68747 11.9316 1.58201C11.9199 1.52341 11.8906 1.31638 11.8652 1.12302L11.8203 0.773409L11.75 0.708956C11.6875 0.650362 11.6699 0.644502 11.5684 0.646456C11.5059 0.648409 11.0019 0.708955 10.4492 0.781221Z" />
    <path d="M1.37695 1.03328C1.28125 1.07625 1.22266 1.13875 1.18164 1.23641C1.1543 1.30281 1.15234 2.12508 1.15234 9.6837C1.15234 14.8575 1.1582 18.0802 1.16992 18.1192C1.19922 18.2189 1.26172 18.2931 1.35352 18.338C1.4375 18.379 1.45313 18.379 3.32617 18.379C4.61133 18.379 5.23047 18.3732 5.26758 18.3575C5.33594 18.3321 5.42187 18.2521 5.46484 18.1739C5.49609 18.1192 5.49805 17.5333 5.50781 10.254C5.51367 5.92977 5.51367 2.1368 5.50781 1.82625C5.49805 1.21688 5.49414 1.1993 5.38672 1.09969C5.27148 0.992266 5.35156 0.996173 3.32617 0.996173C1.54883 0.996173 1.45117 0.998126 1.37695 1.03328ZM4.21484 3.74227L4.29688 3.75203V4.45516C4.29688 5.05672 4.29297 5.15633 4.26758 5.15633C4.25195 5.15633 4.23047 5.12313 4.2168 5.07234C4.20312 5.02742 4.18359 4.9786 4.17383 4.96492C4.16016 4.94735 3.9668 4.94149 3.32227 4.94149C2.86523 4.94149 2.48047 4.9493 2.46875 4.95711C2.45508 4.96492 2.43164 5.01375 2.41602 5.06844C2.40039 5.12703 2.37695 5.16805 2.35547 5.17195C2.32617 5.17781 2.32422 5.11727 2.32422 4.46297C2.32422 3.8868 2.33008 3.74813 2.34961 3.75594C2.36328 3.7618 2.46484 3.78133 2.57422 3.80086C2.73242 3.8282 2.77344 3.84188 2.77344 3.86727C2.77344 3.90047 2.74414 3.91219 2.54492 3.96492L2.46094 3.98641V4.3282V4.66805L2.8457 4.66414L3.22852 4.65828L3.22461 4.41414C3.2207 4.14266 3.2168 4.13289 3.08398 4.11141C3.02148 4.09969 3.00781 4.08992 3.00781 4.05281C3.00781 4.00789 3.00781 4.00789 3.29102 4.00789H3.57422V4.05281C3.57422 4.09188 3.56055 4.10164 3.50195 4.11336C3.35742 4.13875 3.35938 4.13289 3.35938 4.41414V4.66805H3.65039C3.80859 4.66805 3.99414 4.66219 4.06055 4.65633L4.17969 4.64266V4.30477V3.96492L3.99414 3.87313C3.86328 3.80672 3.80859 3.76961 3.80859 3.74617C3.80859 3.71297 3.82422 3.71102 3.9707 3.72078C4.05859 3.72664 4.16797 3.73641 4.21484 3.74227ZM4.31641 5.56063C4.31641 5.85555 4.2832 5.89266 3.73437 6.22078C3.40039 6.42 3.37891 6.43953 3.37891 6.5743V6.6407L3.7832 6.6368L4.1875 6.63094L4.21484 6.53719C4.23047 6.4825 4.25195 6.44539 4.26953 6.44539C4.29297 6.44539 4.29688 6.50399 4.29688 6.79695C4.29688 7.0743 4.29102 7.14852 4.27148 7.14852C4.25781 7.14852 4.23047 7.09969 4.21094 7.0411L4.17773 6.93367L3.31445 6.93758L2.45117 6.94344L2.42188 7.045C2.40039 7.11922 2.38281 7.14852 2.35938 7.14852C2.32617 7.14852 2.32422 7.11531 2.33008 6.61531C2.33398 6.11531 2.33789 6.0782 2.37891 5.97274C2.50781 5.65242 2.91992 5.58406 3.16797 5.83992C3.22266 5.89852 3.27344 5.97274 3.29492 6.03328C3.31445 6.08797 3.33594 6.13289 3.34375 6.13289C3.35937 6.13289 3.81055 5.84774 3.99805 5.71883C4.13672 5.62313 4.19922 5.55086 4.22852 5.4493C4.24414 5.39656 4.27539 5.36727 4.30078 5.38289C4.30859 5.38875 4.31641 5.46883 4.31641 5.56063ZM3.97656 7.5743C4.14648 7.66024 4.26172 7.86338 4.29492 8.1251C4.32031 8.31651 4.29688 9.02354 4.26758 9.02354C4.25586 9.02354 4.23242 8.98643 4.2207 8.93956C4.20703 8.89463 4.18555 8.84581 4.17578 8.83213C4.15039 8.80284 2.52734 8.79698 2.48047 8.82823C2.46484 8.83799 2.4375 8.88878 2.41992 8.93956C2.40234 8.99034 2.37695 9.03331 2.36328 9.03331C2.32227 9.03331 2.3125 8.14073 2.35352 7.98057C2.41211 7.74617 2.55859 7.61727 2.76758 7.61727C2.95703 7.61727 3.10937 7.71688 3.19336 7.89463L3.23633 7.98643L3.25977 7.9044C3.3125 7.72469 3.43359 7.58211 3.56836 7.53914C3.66211 7.50789 3.88672 7.52742 3.97656 7.5743ZM4.30078 9.76963C4.30469 9.99229 4.29883 10.1329 4.28711 10.1407C4.26172 10.1603 4.24805 10.1407 4.21875 10.0489C4.20508 10.006 4.18555 9.95909 4.17383 9.94542C4.16016 9.92784 3.97266 9.92198 3.35156 9.92393C2.91016 9.92588 2.52734 9.93174 2.50195 9.93956C2.4668 9.94932 2.44531 9.97862 2.42188 10.0489C2.36133 10.2306 2.34375 10.1759 2.33789 9.78917C2.33398 9.47081 2.33789 9.4337 2.36523 9.4337C2.38672 9.4337 2.4043 9.46299 2.42188 9.52549C2.43359 9.57628 2.45508 9.6251 2.4668 9.63292C2.48047 9.64073 2.86523 9.64854 3.32227 9.64854C3.96484 9.64854 4.16016 9.64268 4.17383 9.62315C4.18555 9.61143 4.20508 9.56456 4.21875 9.52159C4.27734 9.33213 4.29297 9.37901 4.30078 9.76963ZM4.17383 10.4669L4.29688 10.4786L4.30078 11.1915C4.30273 11.7794 4.29883 11.9044 4.27734 11.9044C4.26367 11.9044 4.23633 11.8595 4.21875 11.8067L4.18555 11.7091H3.31836H2.45117L2.42383 11.8106C2.4082 11.8712 2.38477 11.9142 2.37109 11.9142C2.34961 11.9142 2.34375 11.8439 2.34375 11.5528C2.34375 11.2618 2.34961 11.1915 2.37109 11.1915C2.38477 11.1915 2.4082 11.2345 2.42383 11.2931L2.45117 11.3966L3.31641 11.4024L4.17969 11.4064V11.0489V10.6915L4.00195 10.6056C3.9043 10.5567 3.81641 10.5021 3.80664 10.4825C3.78906 10.4532 3.79883 10.4493 3.91992 10.4513C3.99219 10.4532 4.10742 10.4591 4.17383 10.4669ZM4.30859 12.5001C4.31055 12.8302 4.30664 12.8712 4.27734 12.8712C4.25781 12.8712 4.23828 12.8419 4.22266 12.7833C4.20117 12.7052 4.19336 12.6954 4.14648 12.6954C4.11523 12.6974 3.97852 12.7384 3.83789 12.7892L3.58398 12.881L3.57812 13.2345L3.57422 13.5899L3.85742 13.7032C4.17578 13.8302 4.19141 13.8302 4.22852 13.6993C4.24023 13.6583 4.26367 13.6212 4.28125 13.6173C4.30859 13.6114 4.31055 13.6485 4.31055 13.9259C4.31055 14.2052 4.30859 14.2384 4.2793 14.2384C4.25781 14.2384 4.23828 14.211 4.22266 14.1524C4.21094 14.1036 4.18359 14.0489 4.16211 14.0294C4.14063 14.0099 3.72852 13.8243 3.24414 13.6153C2.76172 13.4064 2.35742 13.2306 2.34766 13.2247C2.33789 13.2189 2.32422 13.1817 2.31641 13.1427L2.30469 13.0743L3.20703 12.7345C4.11328 12.3927 4.21875 12.3439 4.21875 12.2579C4.21875 12.2052 4.25586 12.129 4.28125 12.129C4.30078 12.129 4.30664 12.213 4.30859 12.5001ZM4.23828 14.5021C4.38867 14.8185 4.39258 15.2306 4.24805 15.5372C4.21875 15.5978 4.14453 15.7032 4.08203 15.7696C3.88672 15.9767 3.67383 16.0626 3.34961 16.0626C2.92383 16.0626 2.61719 15.879 2.43555 15.5157C2.3457 15.338 2.31641 15.1896 2.31641 14.9122C2.31641 14.6954 2.34375 14.4454 2.37109 14.42C2.375 14.4161 2.48047 14.4317 2.60547 14.4571C2.89062 14.5118 2.89648 14.5372 2.64648 14.6095L2.4707 14.6603L2.44727 14.7462C2.38867 14.9747 2.4375 15.2794 2.5625 15.4474C2.84375 15.8321 3.59375 15.8673 3.95312 15.5138C4.17383 15.295 4.24805 14.9376 4.14844 14.5489C4.11328 14.4083 4.11328 14.3751 4.14844 14.3751C4.16406 14.3751 4.20508 14.4317 4.23828 14.5021Z" />
    <path d="M2.64648 6.0332C2.49609 6.10156 2.44141 6.2207 2.44141 6.47656V6.64062H2.86133H3.28125V6.52344C3.28125 6.16406 3.14453 5.99609 2.85156 5.99609C2.77148 5.99609 2.69727 6.00977 2.64648 6.0332Z" />
    <path d="M3.58008 7.85353C3.48437 7.88088 3.38477 7.9922 3.34961 8.10939C3.33398 8.16408 3.32031 8.28322 3.32031 8.37306V8.53517H3.74805C4.23633 8.53517 4.19922 8.5508 4.19922 8.34767C4.19922 8.15627 4.16601 8.0547 4.07422 7.959C3.96094 7.84181 3.76562 7.79884 3.58008 7.85353Z" />
    <path d="M2.64648 7.94727C2.49609 8.01563 2.44336 8.125 2.44141 8.37305V8.53516H2.82227H3.20312V8.36328C3.20117 8.11329 3.14063 7.99805 2.97461 7.9375C2.87109 7.9004 2.73828 7.9043 2.64648 7.94727Z" />
    <path d="M3.07032 13.0723C2.86329 13.1484 2.70118 13.2168 2.709 13.2246C2.72853 13.2441 3.44337 13.5352 3.45118 13.5273C3.45509 13.5234 3.45509 13.3887 3.45314 13.2285L3.44728 12.9355L3.07032 13.0723Z" />
    <path d="M9.02344 4.47656C8.61328 4.5 6.53516 4.50586 6.02148 4.48633L5.60547 4.46875V10.5566V16.6465L5.77148 16.6328C6.14648 16.6016 7.68555 16.5859 8.5332 16.6035C9.01953 16.6133 9.42773 16.627 9.43555 16.6328C9.44531 16.6387 9.45312 13.9981 9.45312 10.5488V4.45312L9.39062 4.45703C9.35547 4.45703 9.18945 4.4668 9.02344 4.47656ZM6.71875 8.3418C6.71875 8.44141 6.74414 8.45313 7.17773 8.55274C7.53516 8.63282 7.66406 8.65235 7.6875 8.62696C7.70313 8.61134 7.67969 8.55665 7.61719 8.46095C7.58398 8.41407 7.58008 8.39845 7.60156 8.39845C7.64063 8.39845 7.85742 8.70509 7.84375 8.74024C7.81836 8.81055 7.67187 8.79493 7.02148 8.64845C6.85156 8.60938 6.8418 8.60548 6.73437 8.49415C6.62891 8.38868 6.62109 8.37305 6.62109 8.29102V8.20313L6.66992 8.23438C6.70898 8.25977 6.71875 8.28321 6.71875 8.3418ZM7.75 8.95313C7.875 9.12891 7.87891 9.16016 7.77344 9.16016C7.73047 9.16016 7.69531 9.16407 7.69531 9.16798C7.69531 9.17188 7.73438 9.23438 7.7832 9.3047C7.83203 9.37696 7.87109 9.44532 7.87109 9.45509C7.87109 9.4629 7.84961 9.48634 7.82227 9.50391C7.72656 9.56641 7.38672 9.50391 7.26562 9.40235C7.23242 9.37501 7.18359 9.31055 7.1543 9.26368C7.11133 9.18751 7.10352 9.15235 7.10547 9.03907C7.10742 8.87891 7.11719 8.85938 7.17383 8.89454C7.2207 8.92384 7.56445 9.00391 7.64648 9.00391C7.70703 9.00391 7.70703 8.98829 7.64648 8.90626C7.5918 8.83204 7.58594 8.8086 7.62305 8.8086C7.63477 8.8086 7.69336 8.87305 7.75 8.95313ZM7.63672 9.69532C7.81445 9.73243 7.98438 9.77149 8.01172 9.78321C8.09375 9.81446 8.22461 9.94337 8.26367 10.0293C8.29883 10.1055 8.31445 10.3301 8.28906 10.3574C8.28125 10.3652 8.25 10.3555 8.21875 10.3359C8.16406 10.3047 8.16406 10.3027 8.17578 10.166C8.19336 9.97266 8.16016 9.93555 7.91992 9.88282C7.82422 9.86134 7.73242 9.84376 7.7207 9.84376C7.70703 9.84376 7.74023 9.91212 7.79297 9.99415C7.84766 10.0762 7.88867 10.1524 7.88477 10.1641C7.88086 10.1758 7.85547 10.1953 7.83008 10.209C7.78906 10.2285 7.74414 10.2246 7.56836 10.1856C7.26562 10.1172 7.26367 10.1172 7.31445 10.2383C7.32422 10.2617 7.32031 10.2734 7.30078 10.2734C7.27148 10.2734 7.12891 10.0391 7.12891 9.99024C7.12891 9.95313 7.11328 9.95313 7.33008 10.002C7.67578 10.0781 7.73438 10.084 7.73438 10.0371C7.73438 10.0274 7.70703 9.97657 7.67578 9.92384L7.61719 9.83009L7.40039 9.78321C7.18555 9.73634 7.18359 9.73634 7.14648 9.66407C7.12695 9.62501 7.10938 9.5879 7.10938 9.58204C7.10938 9.57813 7.15625 9.58595 7.21289 9.60157C7.26758 9.6172 7.45898 9.66016 7.63672 9.69532ZM7.52734 10.3711C7.67578 10.418 7.76562 10.4961 7.8418 10.6445C7.95898 10.875 7.86133 11.0059 7.60742 10.959C7.38086 10.916 7.22656 10.7871 7.1543 10.5742C7.08203 10.3652 7.23437 10.2813 7.52734 10.3711ZM7.06836 11.082L7.13086 11.1465L7.06836 11.1602C6.98242 11.1758 6.9375 11.2227 6.92187 11.3027C6.89258 11.4551 7.02734 11.6348 7.24414 11.7344C7.38477 11.7988 7.63672 11.8184 7.72852 11.7715C7.8418 11.7109 7.85938 11.5606 7.76758 11.4238C7.72461 11.3594 7.66211 11.3281 7.5293 11.3027L7.46875 11.291L7.47656 11.4219L7.48242 11.5527L7.44141 11.5059C7.40625 11.4668 7.40234 11.4336 7.40234 11.2441C7.40234 11.0488 7.4043 11.0313 7.43164 11.0664C7.44727 11.0859 7.46094 11.1133 7.46094 11.125C7.46094 11.1367 7.56055 11.168 7.68164 11.1973C7.95898 11.2617 8.0293 11.291 8.13867 11.3906C8.25 11.4941 8.30273 11.5977 8.31445 11.7422C8.32617 11.8672 8.30859 11.8828 8.22656 11.8242C8.18945 11.7988 8.18359 11.7774 8.18359 11.6582C8.18359 11.4941 8.1582 11.4609 7.99414 11.416C7.93164 11.3984 7.86719 11.3789 7.84961 11.375C7.82031 11.3672 7.82422 11.3828 7.86523 11.4844C7.95508 11.709 7.92383 11.8613 7.77148 11.9375C7.63477 12.0078 7.38086 11.9551 7.16992 11.8145C6.97656 11.6856 6.86328 11.5078 6.8418 11.2988C6.82812 11.1738 6.84375 11.1055 6.89453 11.0547C6.94922 11 6.99414 11.0059 7.06836 11.082ZM6.82422 12.334C6.79883 12.3984 6.83594 12.4629 6.91992 12.5C7.02344 12.5449 7.67773 12.6797 7.75781 12.6719L7.81641 12.666L7.74609 12.5625C7.68555 12.4746 7.67969 12.4609 7.71289 12.4609C7.75781 12.4609 7.95898 12.7578 7.94336 12.8008C7.9375 12.8164 7.90039 12.832 7.86328 12.8359L7.79492 12.8418L7.87305 12.957C7.96484 13.0938 7.96875 13.1328 7.89062 13.1641C7.7793 13.2109 7.46484 13.1328 7.35547 13.0313C7.27148 12.9531 7.1875 12.8125 7.1875 12.75C7.1875 12.7109 7.17773 12.6953 7.1543 12.6953C6.97266 12.6953 6.71875 12.4688 6.71875 12.3106V12.2441L6.77734 12.2754C6.81445 12.2949 6.83008 12.3145 6.82422 12.334ZM7.85352 13.3164C8.03516 13.5996 8.01758 13.6152 7.61328 13.5215C7.48633 13.4941 7.37695 13.4746 7.37109 13.4805C7.36523 13.4883 7.375 13.5195 7.39258 13.5547C7.4375 13.6426 7.4082 13.6543 7.34375 13.5762C7.26953 13.4883 7.19531 13.3457 7.21289 13.3281C7.2207 13.3184 7.32617 13.334 7.44727 13.3594C7.84375 13.4434 7.85352 13.4414 7.76367 13.2871C7.71875 13.2129 7.7168 13.2031 7.74805 13.2031C7.76953 13.2051 7.8125 13.25 7.85352 13.3164ZM7.07031 13.3399C7.07031 13.3457 7.04297 13.3672 7.00781 13.3867L6.94727 13.4238L6.90039 13.3672C6.84375 13.2949 6.84375 13.2891 6.91016 13.2539C6.95898 13.2266 6.9668 13.2285 7.01758 13.2774C7.04687 13.3047 7.07031 13.332 7.07031 13.3399ZM7.56055 13.7344C7.74609 13.8223 7.875 13.9375 7.94141 14.0742C7.98438 14.1641 7.99023 14.1895 7.97266 14.2285C7.91992 14.3457 7.65234 14.3027 7.46484 14.1484L7.40039 14.0938L7.40625 14.1895C7.41211 14.2871 7.42383 14.2988 7.52734 14.3359C7.56836 14.3516 7.57812 14.3633 7.56445 14.377C7.53906 14.4024 7.3418 14.3516 7.30859 14.3125C7.28906 14.2871 7.26758 13.9453 7.28516 13.9453C7.29102 13.9453 7.3418 13.9805 7.40039 14.0234C7.59375 14.1699 7.87109 14.207 7.87109 14.0879C7.87109 14.0742 7.8418 14.0313 7.80859 13.9922C7.69336 13.8613 7.4043 13.7598 7.2793 13.8066C7.23242 13.8242 7.22461 13.8223 7.19531 13.7676C7.17187 13.7188 7.16992 13.7031 7.18945 13.6777C7.23047 13.6289 7.39453 13.6543 7.56055 13.7344ZM7.69141 14.5313C7.81055 14.582 7.89648 14.6738 7.96289 14.8203C8.01563 14.9336 8.01172 14.9961 7.94922 15.0586C7.90039 15.1074 7.74219 15.1113 7.59961 15.0645C7.33984 14.9805 7.15039 14.6426 7.29102 14.5098C7.32812 14.4746 7.35156 14.4707 7.46094 14.4785C7.53125 14.4824 7.63281 14.5059 7.69141 14.5313ZM8.22852 14.9082C8.25195 15.0078 8.23047 15.1387 8.17773 15.2168C8.10156 15.3281 8.00195 15.3887 7.73242 15.4883C7.53711 15.5586 7.48047 15.5859 7.50977 15.5977C7.63477 15.6406 7.7168 15.6875 7.80273 15.7617L7.90039 15.8457L7.91016 15.75L7.92188 15.6543L7.96484 15.7422C7.99805 15.8125 8.00781 15.8652 8.00781 16.0039V16.1777L7.95898 16.1328C7.92383 16.0996 7.91016 16.0664 7.91016 16.0098C7.91016 15.9004 7.83594 15.8379 7.63281 15.7754C7.48633 15.7305 7.12109 15.6445 7.07031 15.6445C7.04102 15.6445 7.04687 15.7715 7.07812 15.8477C7.11523 15.9375 7.19727 15.9688 7.31836 15.9395C7.41602 15.9141 7.42969 15.9219 7.45313 16.0137C7.4707 16.0762 7.43164 16.0977 7.3125 16.0879C7.18164 16.0781 7.10547 16.0234 7.03711 15.8848C6.99219 15.791 6.98242 15.7441 6.97656 15.5879L6.9707 15.4004L7.01172 15.4473C7.03906 15.4785 7.09766 15.5039 7.20312 15.5293C7.28516 15.5488 7.36133 15.5645 7.36914 15.5664C7.37891 15.5664 7.33984 15.5137 7.28125 15.4473C6.98437 15.1074 6.93555 15.0313 6.96094 14.9316C6.97266 14.8848 6.97266 14.8848 7.04102 14.916C7.10352 14.9453 7.10937 14.9551 7.09766 15.0117C7.08008 15.1055 7.11133 15.1563 7.36328 15.4551C7.38086 15.4746 7.94336 15.25 8.05078 15.1836C8.13281 15.1309 8.18359 15.0664 8.18359 15.0137C8.18359 14.9941 8.1582 14.9512 8.125 14.918C8.09375 14.8867 8.06641 14.8574 8.06641 14.8535C8.06641 14.8438 8.14844 14.8281 8.18359 14.832C8.19922 14.834 8.21875 14.8672 8.22852 14.9082Z" />
    <path d="M7.20116 9.12891C7.1953 9.17187 7.19921 9.22266 7.20898 9.24414C7.26562 9.3457 7.71483 9.4375 7.71483 9.3457C7.71483 9.33203 7.68554 9.2793 7.65233 9.22656C7.58788 9.13477 7.58788 9.13281 7.40038 9.0918L7.21093 9.05078L7.20116 9.12891Z" />
    <path d="M7.32813 10.4824C7.26368 10.4961 7.22071 10.5684 7.24415 10.6289C7.29688 10.7676 7.63087 10.873 7.75001 10.7891C7.81837 10.7422 7.80665 10.6582 7.72266 10.5898C7.62891 10.5117 7.43751 10.459 7.32813 10.4824Z" />
    <path d="M7.3086 12.7578C7.21485 12.8515 7.37891 12.9863 7.63477 13.0312C7.8086 13.0605 7.83984 13.043 7.78516 12.9394C7.72852 12.8359 7.68946 12.8105 7.54493 12.7812C7.47266 12.7656 7.39454 12.75 7.3711 12.7441C7.34962 12.7402 7.32032 12.7461 7.3086 12.7578Z" />
    <path d="M7.40235 14.6328C7.34571 14.6641 7.33008 14.7324 7.36524 14.7988C7.39844 14.8613 7.57032 14.9414 7.70118 14.9551C7.79883 14.9648 7.81446 14.9609 7.86133 14.9141C7.94532 14.8301 7.89844 14.7402 7.73243 14.668C7.60547 14.6152 7.4668 14.5996 7.40235 14.6328Z" />
    <path d="M16.6602 6.32029C16.6445 6.3242 16.3496 6.37498 16.0059 6.43553C15.6621 6.49607 15.3379 6.55662 15.2832 6.57224C15.2305 6.58592 15.0195 6.62693 14.8145 6.66014C13.9512 6.80271 12.8965 6.99412 12.8379 7.02146C12.7637 7.05467 12.7168 7.11912 12.7031 7.20896C12.6914 7.28123 14.8203 18.0683 14.875 18.2168C14.9082 18.3066 14.9766 18.3672 15.0684 18.3867C15.1289 18.4004 18.918 17.7305 18.9844 17.6953C19.0586 17.6543 19.1074 17.5781 19.1152 17.4863C19.125 17.3672 16.9727 6.50779 16.9258 6.43553C16.8789 6.36326 16.7402 6.30467 16.6602 6.32029ZM15.3379 6.6992C15.3574 6.82224 15.8086 9.45702 15.8691 9.81444C15.9551 10.3105 16.0313 10.7539 16.1035 11.1816C16.1426 11.4062 16.1953 11.7148 16.2207 11.8652C16.2461 12.0137 16.2637 12.1406 16.2578 12.1465C16.2441 12.1621 15.9785 11.8691 15.9766 11.8379C15.9766 11.7988 15.8984 11.7187 15.8613 11.7187C15.8438 11.7187 15.8047 11.6875 15.7754 11.6504C15.7461 11.6133 15.7148 11.582 15.7051 11.582C15.6914 11.582 15.5645 11.8398 15.4688 12.0644C15.4453 12.1211 15.4141 12.168 15.4004 12.168C15.3867 12.168 15.3691 12.1973 15.3613 12.2305C15.3477 12.291 15.3457 12.2871 15.3223 12.168C15.3086 12.0976 15.2695 11.8828 15.2363 11.6894C15.1758 11.3398 14.5059 7.41795 14.4316 6.99412C14.4121 6.87107 14.3984 6.7656 14.4063 6.75974C14.4219 6.74217 15.2168 6.60349 15.2734 6.6074C15.3145 6.61131 15.3242 6.62303 15.3379 6.6992Z" />
    <path d="M9.0918 16.8203C8.73047 16.8438 6.46094 16.8496 5.98242 16.8301L5.60547 16.8145V17.4941C5.60547 18.2559 5.60742 18.2715 5.74414 18.3438C5.80664 18.377 5.90234 18.3789 7.53125 18.3789H9.25195L9.31836 18.334C9.45117 18.2461 9.45312 18.2324 9.45312 17.4746V16.7969L9.41016 16.8008C9.38477 16.8008 9.24219 16.8105 9.0918 16.8203Z" />
</svg>
