<svg width="250" height="256" viewBox="0 0 250 256"
  xmlns="http://www.w3.org/2000/svg">
  <path d="M90.2565 9.84624C70.5642 20.0206 12.1437 66.2975 7.54882 75.4873C1.31292 87.6308 5.57959 175.262 12.8001 188.062C16.7386 195.282 31.836 204.472 73.1898 225.149C103.385 240.246 132.595 252.718 137.518 252.718C142.769 252.718 166.4 243.2 190.031 231.385C245.826 203.815 246.154 203.487 246.154 147.692C246.154 103.713 242.215 90.5847 226.79 82.0514C222.195 79.7539 219.898 75.1591 219.898 68.595C219.898 55.1385 211.364 38.0719 202.503 33.1488C190.687 26.9129 117.498 3.28214 109.949 3.28214C106.339 3.28214 97.477 6.23598 90.2565 9.84624ZM150.974 72.8616C166.4 80.7385 169.354 87.3026 160.492 92.8821C156.226 95.5078 152.944 94.5232 146.051 89.2719C127.672 74.8308 95.836 83.036 82.0514 105.682C73.8463 119.139 73.1898 147.036 80.7386 162.79C92.2257 186.749 130.298 195.939 149.99 179.2C158.195 172.308 160.164 171.98 165.744 175.918C171.651 180.185 171.651 180.841 164.103 188.718C139.159 215.303 83.3642 204.8 64.9847 169.682C55.4668 151.959 54.8104 118.482 63.6719 102.072C81.395 68.595 118.154 56.4514 150.974 72.8616Z" />
</svg>