<svg width="256" height="187" viewBox="0 0 256 187"
  xmlns="http://www.w3.org/2000/svg">
  <path d="M53.6576 14.6432C39.6288 22.7328 22.7328 32.4608 15.9744 36.352C7.8848 41.0624 3.2768 44.3392 1.9456 46.4896C0.1024 49.4592 0 52.224 0 93.2864C0 136.806 0 136.909 2.2528 140.288C3.9936 142.746 13.824 148.992 40.96 164.762C75.264 184.627 77.6192 185.856 82.432 185.754C87.1424 185.754 89.8048 184.422 119.091 167.424C147.866 150.733 153.805 146.432 148.685 146.432C147.661 146.432 133.325 154.317 116.736 163.942C100.147 173.568 85.0944 181.658 83.3536 181.965C80.6912 182.374 76.1856 180.122 53.1456 166.912C10.752 142.438 7.3728 140.39 5.632 137.933C4.3008 136.09 4.096 129.638 4.096 92.9792V50.2784L6.4512 47.8208C8.2944 45.7728 65.1264 12.1856 77.5168 5.73442C82.2272 3.37922 83.6608 3.58402 92.16 8.49922C141.926 37.4784 148.685 41.1648 149.811 40.0384C150.63 39.2192 150.528 38.5024 149.504 37.4784C147.661 35.6352 91.8528 3.27682 87.3472 1.43362C85.504 0.614419 82.944 1.87552e-05 81.6128 1.87552e-05C80.2816 1.87552e-05 67.6864 6.55362 53.6576 14.6432Z" />
  <path d="M72.7041 74.6497L69.1201 75.2641V93.1841V111.104L71.4753 111.411C75.4689 112.026 77.0049 109.773 76.6977 104.038L76.3905 98.8161L83.0465 98.3041C93.2865 97.4849 97.2801 93.9009 97.2801 85.5041C97.2801 76.8001 86.7329 72.1921 72.7041 74.6497ZM86.5281 81.1009C89.9073 82.6369 90.8289 86.3233 88.6785 89.6001C86.8353 92.3649 83.6609 93.4913 79.3601 92.9793C76.5953 92.6721 76.4929 92.4673 76.5953 86.7329C76.5953 83.5585 76.6977 80.6913 76.6977 80.3841C76.9025 79.3601 83.8657 79.8721 86.5281 81.1009Z" />
  <path d="M145.92 74.6495C134.554 77.6191 128.922 87.5519 131.994 99.0208C133.427 104.243 139.674 110.182 144.896 111.206C149.811 112.128 161.485 111.309 162.918 109.875C164.147 108.646 164.454 91.9552 163.328 90.2144C162.304 88.4735 148.992 88.7807 147.456 90.624C145.408 93.0816 147.968 95.232 152.781 95.232H156.774L156.467 100.557C156.16 105.882 156.058 105.984 152.883 106.291C145.203 107.008 139.264 101.171 139.264 92.672C139.264 83.9679 144.896 79.3599 154.829 80.0767C161.382 80.5887 163.635 79.3599 161.485 76.4927C160.051 74.5471 150.63 73.4207 145.92 74.6495Z" />
  <path d="M109.875 75.5712C108.339 76.4928 96.5633 108.851 97.0753 110.49C97.5873 112.128 101.99 111.923 103.731 110.08C104.653 109.261 105.574 107.213 105.984 105.472C106.598 102.4 106.803 102.4 113.254 102.4C119.501 102.4 119.91 102.502 120.832 105.165C121.446 106.803 122.266 108.749 122.778 109.568C123.904 111.616 128.922 112.128 129.638 110.285C130.15 108.749 119.501 78.4384 117.658 76.0832C116.429 74.6496 111.821 74.3424 109.875 75.5712ZM115.917 88.8832C118.477 97.1776 118.477 97.28 113.05 97.28C109.568 97.28 108.442 96.9728 108.851 95.9488C109.158 95.232 110.182 91.7504 111.104 88.2688C112.128 84.6848 113.152 82.1248 113.459 82.432C113.766 82.7392 114.893 85.6064 115.917 88.8832Z" />
  <path d="M174.592 75.9808C174.285 76.8 174.182 84.992 174.285 94.208L174.592 111.104H178.176H181.76V93.184V75.264L178.381 74.9568C176.333 74.752 174.899 75.1616 174.592 75.9808Z" />
  <path d="M193.229 75.3663C192 76.5951 192.41 110.387 193.638 111.104C194.15 111.514 195.789 111.514 197.12 111.206C199.578 110.592 199.578 110.285 199.885 99.0207L200.192 87.5519L207.36 99.3279C214.323 110.694 214.63 111.104 218.112 111.104H221.696V93.1839V75.2639H218.624H215.552L215.245 86.7327C215.142 93.0815 214.63 98.3039 214.221 98.3039C213.811 98.2015 210.534 93.0815 206.848 86.7327C200.909 76.4927 199.782 75.2639 197.018 74.9567C195.379 74.7519 193.638 74.9567 193.229 75.3663Z" />
  <path d="M231.936 75.6736C231.322 76.288 231.117 83.6608 231.424 93.9008L231.936 111.104H243.712C254.362 111.104 255.488 110.899 255.795 109.158C256.41 106.291 254.259 105.472 246.067 105.472H238.592V100.352V95.3344L245.862 95.0272C251.597 94.8224 253.44 94.3104 254.362 92.8768C256 90.2144 253.543 89.088 245.555 89.088H238.592V84.992V80.896H246.17C254.055 80.896 256.819 79.5648 255.591 76.288C255.181 75.0592 252.928 74.752 243.917 74.752C237.875 74.752 232.448 75.1616 231.936 75.6736Z" />
  <path d="M41.2672 87.4496C33.8944 90.8288 32.4608 103.117 38.8096 108.749C41.8816 111.514 42.5984 111.718 49.4592 111.411C56.0128 111.104 56.832 110.899 56.832 109.056C56.832 107.213 56.2176 107.008 51.5072 107.315C47.3088 107.622 45.8752 107.315 44.1344 105.574C40.6528 102.093 41.472 101.376 49.4592 101.376C53.4528 101.376 57.4464 100.966 58.2656 100.454C60.3136 99.1232 58.9824 92.3648 56.1152 89.3952C53.0432 86.4256 45.7728 85.4016 41.2672 87.4496ZM50.9952 92.3648C53.6576 95.0272 52.3264 96.256 47.104 96.256C41.5744 96.256 41.472 96.1536 43.008 93.0816C44.2368 90.8288 49.0496 90.4192 50.9952 92.3648Z" />
</svg>