<svg width="256" height="256" viewBox="0 0 256 256"
  xmlns="http://www.w3.org/2000/svg">
  <path d="M181.536 116.032H74.4639V124.185H181.536V116.032Z" />
  <path d="M166.754 55.0337H89.2462V67.2627H166.754V55.0337Z" />
  <path d="M163.6 134.65H74.4639V142.803H163.6V134.65Z" />
  <path d="M181.536 153.268H74.4639V161.421H181.536V153.268Z" />
  <path d="M181.536 171.886H74.4639V180.038H181.536V171.886Z" />
  <path d="M140.773 190.504H74.4639V198.657H140.773V190.504Z" />
  <path fill-rule="evenodd" clip-rule="evenodd" d="M213.751 16.3053C213.751 7.33739 206.414 0 197.446 0H58.554C49.5861 0 42.2487 7.33739 42.2487 16.3053V239.695C42.2487 248.663 49.5861 256 58.554 256H197.445C206.413 256 213.75 248.663 213.75 239.695V16.3053H213.751ZM195.478 29.5999H60.522V215.641H195.478V29.5999ZM105.217 230.727H150.783V237.656H105.217V230.727Z" />
</svg>