<svg width="20" height="20" viewBox="0 0 20 20" fill="none" xmlns="http://www.w3.org/2000/svg">
<g clip-path="url(#clip0)">
<path d="M4.10927 0.972656C3.98817 0.625 3.49599 0.625 3.37099 0.972656L1.16395 7.80078H6.32021C6.3163 7.80078 4.10927 0.972656 4.10927 0.972656V0.972656ZM0.0350485 11.2383C-0.066514 11.5508 0.0467673 11.8984 0.312392 12.0977L9.99599 19.2852L1.16005 7.80078L0.0350485 11.2383ZM6.3163 7.80078L9.99989 19.2852L13.6835 7.80078H6.3163ZM19.9647 11.2383L18.8397 7.80078L9.99989 19.2852L19.6835 12.0977C19.953 11.8984 20.0624 11.5508 19.9647 11.2383V11.2383ZM16.6288 0.972656C16.5077 0.625 16.0155 0.625 15.8905 0.972656L13.6796 7.80078H18.8358L16.6288 0.972656Z" fill="black"/>
</g>
<defs>
<clipPath id="clip0">
<rect width="20" height="20" fill="white"/>
</clipPath>
</defs>
</svg>
