<svg width="256" height="192" viewBox="0 0 256 192"
  xmlns="http://www.w3.org/2000/svg">
  <path d="M225.921 0H111.501C103.544 0.02104 95.9178 3.2012 90.2842 8.84728C84.6506 14.4934 81.4666 22.1474 81.4258 30.1426H144.426C149.678 30.1194 154.882 31.1378 159.741 33.1402C164.599 35.1426 169.017 38.0882 172.74 41.8098C176.463 45.5306 179.419 49.9538 181.437 54.825C183.455 59.697 184.496 64.9202 184.501 70.197V128.608H193.566L204.251 147.156C206.316 150.743 209.691 150.768 211.751 147.156L222.436 128.568H225.936C233.9 128.531 241.527 125.335 247.158 119.676C252.789 114.016 255.967 106.352 256.001 98.3498V29.9666C256.001 13.3481 242.461 0 225.921 0Z" />
  <path fill-rule="evenodd" clip-rule="evenodd" d="M144.405 40.1896H30.0952C26.1472 40.1768 22.2361 40.9472 18.5854 42.4568C14.9346 43.9656 11.6162 46.184 8.82032 48.984C6.02456 51.7848 3.80624 55.112 2.29264 58.7752C0.779121 62.4384 0 66.3656 0 70.332V138.47C0.00056 146.366 3.0772 153.95 8.57168 159.598C14.0661 165.245 21.542 168.507 29.4 168.687L41.2504 189.285C43.3152 192.871 46.6904 192.922 48.7504 189.33L60.5904 168.798H144.405C152.396 168.778 160.053 165.573 165.695 159.887C171.338 154.202 174.504 146.498 174.5 138.47V70.332C174.5 66.3656 173.721 62.4384 172.207 58.7752C170.694 55.112 168.475 51.7848 165.68 48.984C162.884 46.184 159.566 43.9656 155.914 42.4568C152.264 40.9472 148.353 40.1768 144.405 40.1896ZM63.4874 124.48C60.8266 124.48 58.645 124.065 56.941 123.233C55.237 122.361 53.969 121.217 53.1378 119.805C52.3066 118.391 51.8906 116.833 51.8906 115.129C51.8906 112.261 53.013 109.933 55.2578 108.145C57.5018 106.358 60.8682 105.465 65.357 105.465H73.213V104.717C73.213 102.597 72.6106 101.038 71.405 100.041C70.1994 99.0429 68.7034 98.5445 66.9162 98.5445C65.2954 98.5445 63.8818 98.9397 62.6762 99.7293C61.4714 100.477 60.7234 101.6 60.4322 103.096H52.6386C52.8466 100.851 53.5946 98.8981 54.8834 97.2349C56.2138 95.5725 57.9178 94.3053 59.9954 93.4325C62.0738 92.5181 64.4018 92.0605 66.9786 92.0605C71.3842 92.0605 74.8546 93.1621 77.3898 95.3645C79.925 97.5677 81.193 100.685 81.193 104.717V123.732H74.3978L73.649 118.745C72.7346 120.407 71.4466 121.778 69.7842 122.859C68.1626 123.94 66.0642 124.48 63.4874 124.48ZM65.2954 118.245C67.581 118.245 69.3474 117.497 70.5946 116.001C71.8826 114.505 72.693 112.655 73.0258 110.453H66.2306C64.1106 110.453 62.5938 110.847 61.6794 111.637C60.765 112.385 60.3074 113.321 60.3074 114.443C60.3074 115.648 60.765 116.583 61.6794 117.248C62.5938 117.913 63.7986 118.245 65.2954 118.245ZM105.859 111.601C108.892 108.315 111.293 104.356 113.104 99.5963H98.3201C100.131 104.145 102.616 108.189 105.859 111.601ZM125.067 94.7099V99.5963H119.001C116.727 105.83 113.652 110.927 109.777 115.139C114.115 118.467 119.423 120.951 125.825 122.383C124.603 123.605 123.003 125.964 122.245 127.396C115.463 125.669 109.987 122.847 105.565 119.099C100.974 122.763 95.5401 125.501 89.1377 127.523C88.5473 126.217 86.9889 123.858 85.9785 122.636C92.2121 120.994 97.4777 118.593 101.731 115.35C97.9409 111.011 95.0345 105.746 92.7601 99.5963H86.7361V94.7099H103.248V88.0547H108.345V94.7099H125.067Z" />
</svg>