<svg width="256" height="166" viewBox="0 0 256 166"
  xmlns="http://www.w3.org/2000/svg">
  <path d="M173.739 4.69318C173.141 4.94918 172.373 5.97318 171.776 7.33852C171.221 8.57585 167.083 21.0345 162.56 34.9865C158.08 48.9385 154.325 60.4585 154.24 60.5438C154.155 60.5865 152.405 55.5518 150.4 49.3225C148.352 43.0932 146.645 37.9732 146.603 37.9732C146.517 37.9732 145.749 40.2772 144.853 43.0932L143.232 48.2132L140.331 47.9572C137.984 47.7012 136.875 47.8292 134.528 48.5972C131.797 49.4932 124.587 53.8878 124.288 54.8265C124.203 55.0398 127.275 56.4052 131.115 57.7705C134.912 59.1785 138.197 60.4158 138.368 60.5865C138.539 60.7572 137.941 62.9758 136.96 65.4932C136.021 68.0105 135.253 70.1438 135.339 70.1865C135.424 70.2718 139.563 68.3945 144.597 66.0905C149.632 63.7438 153.771 61.9092 153.813 61.9518C153.984 62.2505 131.157 132.181 130.944 131.925C130.816 131.755 125.952 116.949 120.107 98.9865C114.304 81.0239 109.44 66.1332 109.355 65.8345C109.269 65.5785 110.336 64.7252 111.744 63.9998C114.859 62.3358 123.435 55.5518 123.093 55.0398C122.752 54.4425 117.547 52.9918 113.835 52.4372C111.488 52.0532 109.867 52.0532 107.904 52.3518C106.411 52.6078 105.131 52.7785 105.131 52.7358C105.088 52.7358 102.443 44.5438 99.2001 34.5598C96.0001 24.5758 93.1841 16.2558 93.0134 16.0425C92.8001 15.8718 91.1788 16.1705 89.3014 16.7678C83.3281 18.7305 80.7254 19.2852 79.7441 18.7305C78.7628 18.2185 77.4828 15.5305 75.9894 10.9652C75.4348 9.38652 74.7948 8.10652 74.5814 8.10652C74.3254 8.10652 59.6908 12.7145 42.0694 18.3892C24.4481 24.0638 8.83211 29.0558 7.33877 29.5252C4.48011 30.3785 4.22411 30.8905 6.57077 31.2745C10.9228 31.9998 16.7254 36.4372 19.6268 41.3438C23.1254 47.1892 24.5334 53.0772 25.3868 65.4505C26.1121 75.6052 26.8374 80.4265 28.3734 84.9065C30.2934 90.5812 32.8108 93.7385 36.2668 94.7625L37.9734 95.2745L37.1628 96.1705C34.9868 98.5172 34.4321 102.485 35.6694 107.477C36.5654 111.104 40.1494 118.656 43.5201 123.989C51.4561 136.448 53.8881 142.123 53.8881 148.267C53.8881 152.619 52.7788 155.349 49.8774 158.08C48.7681 159.147 47.6161 160 47.3601 160C47.1468 160 46.9334 160.171 46.9334 160.341C46.9334 160.555 65.8348 154.581 88.9601 147.115L131.029 133.461L172.672 146.987C195.584 154.411 214.613 160.597 214.997 160.725C215.381 160.853 214.827 160.256 213.803 159.36C211.072 156.928 209.92 154.197 209.92 150.016C209.92 143.744 212.053 137.771 217.941 127.744C224.341 116.779 226.645 110.549 226.688 104.32C226.731 100.565 225.877 98.0052 223.872 95.8719C222.976 94.9332 222.891 94.7199 223.488 94.7199C226.731 94.7199 230.315 92.0319 232.448 87.9785C235.008 83.1572 236.117 77.1838 236.757 64.8532C237.184 56.2772 237.867 53.5892 240.213 51.1572C242.304 48.9812 244.608 48.3412 248.235 48.9812C249.813 49.2372 251.136 49.3652 251.221 49.2798C251.307 49.2372 248.917 48.3412 245.888 47.3598C238.805 45.0558 237.824 44.5438 237.227 43.1358C236.672 41.7278 236.757 41.1732 239.659 32.0425C240.683 28.6718 241.408 25.7705 241.195 25.5998C240.768 25.1732 182.272 5.88785 178.56 4.90652C175.701 4.18118 175.147 4.13852 173.739 4.69318ZM185.003 21.3332C191.573 23.5945 199.552 27.5198 203.179 30.2505C209.067 34.7305 212.736 40.6185 214.272 48.1278C216.235 57.7278 214.315 72.9599 209.195 87.8932C201.259 111.061 186.368 119.296 162.773 113.451C158.379 112.341 152.192 110.464 151.765 110.08C151.595 109.952 157.696 89.5998 165.333 64.8958C172.971 40.1918 179.2 19.8825 179.2 19.7972C179.2 19.4558 180.096 19.6692 185.003 21.3332ZM62.9334 31.7865C71.6374 33.3225 77.3121 38.4425 83.0294 49.8772C87.3388 58.5385 89.0028 65.1945 88.6188 72.2772C88.2774 78.7625 86.2294 83.8825 82.0481 88.7892C78.2934 93.1412 73.6001 96.3839 67.5414 98.8159C65.8348 99.4985 64.4268 100.224 64.4268 100.437C64.4268 100.651 67.0721 108.971 70.2721 118.869C73.4721 128.811 76.0321 137.045 75.9041 137.131C75.8188 137.216 73.6854 137.984 71.2108 138.795L66.6454 140.245L48.1708 88.6612C37.3334 58.4105 29.8668 36.9492 30.1228 36.7358C30.5921 36.3092 34.9441 34.9865 40.7468 33.5358C44.4161 32.6398 47.6588 32.0852 53.1201 31.4452C56.0214 31.0612 59.7334 31.2318 62.9334 31.7865ZM110.933 109.013C112.64 109.909 113.707 111.872 115.669 117.632C116.565 120.363 117.333 122.667 117.333 122.709C117.333 123.093 112.939 124.16 112.64 123.904C112.469 123.691 111.701 121.643 110.933 119.339C108.885 113.067 107.008 111.403 104.747 113.707C103.296 115.115 103.381 116.864 105.003 122.112C105.728 124.459 106.24 126.421 106.155 126.507C106.069 126.592 105.045 126.933 103.851 127.275L101.717 127.915L99.2854 120.576C97.9628 116.565 96.8534 113.024 96.8534 112.768C96.8534 112.341 101.035 110.635 101.291 110.976C101.333 111.061 101.589 111.616 101.803 112.171L102.229 113.195L103.168 111.701C104.192 110.08 107.008 108.373 108.715 108.373C109.269 108.373 110.251 108.672 110.933 109.013ZM90.4534 116.267C92.0321 117.077 93.1414 119.168 94.9761 124.971C95.7441 127.445 96.4268 129.536 96.4268 129.579C96.4268 129.664 92.4588 130.987 92.0748 130.987C91.8614 130.987 91.5201 130.475 91.2641 129.792L90.7948 128.64L90.2401 130.005C88.9601 132.992 84.0108 134.656 81.4081 132.949C79.8721 131.968 78.7628 129.28 79.1041 127.403C79.4454 125.525 81.8774 123.691 85.6321 122.411C88.6614 121.429 89.0454 120.576 86.9121 119.552C85.8881 119.04 85.3761 119.083 83.3281 119.723C82.0054 120.149 80.4268 120.917 79.7868 121.472C78.2934 122.709 78.2508 122.709 77.9094 121.429C77.7814 120.875 77.5254 120.107 77.3974 119.765C77.0988 118.997 78.6348 118.101 82.7734 116.651C86.0161 115.499 88.7041 115.371 90.4534 116.267ZM158.037 117.333C162.987 119.68 164.693 124.288 162.304 128.981C160.64 132.224 158.549 133.547 155.008 133.547C148.949 133.547 144.469 129.024 145.451 123.947C145.835 121.856 147.029 119.339 147.968 118.485C150.357 116.309 154.752 115.797 158.037 117.333ZM179.797 123.733C181.76 124.757 181.803 124.8 181.547 126.293C181.12 128.427 181.035 128.469 179.371 127.36C177.323 125.952 175.744 125.696 173.952 126.464C171.904 127.317 170.88 128.981 170.88 131.456C170.88 132.992 171.136 133.717 171.904 134.571C173.141 135.893 175.787 136.704 177.493 136.32L178.731 136.064L178.176 137.899L177.664 139.733L175.445 139.648C170.965 139.435 166.357 136.277 165.717 132.949C165.035 129.28 167.04 124.587 169.856 123.179C171.947 122.069 177.024 122.368 179.797 123.733Z" />
  <path d="M185.045 34.8585C184.832 35.2425 164.608 100.693 164.523 101.29C164.309 102.912 175.957 103.637 180.053 102.229C188.587 99.3278 195.669 92.0745 199.168 82.6878C201.6 76.1598 203.52 65.9198 203.52 59.5198C203.52 47.2318 198.443 39.6371 187.307 35.3278C185.088 34.4318 185.259 34.4745 185.045 34.8585Z" />
  <path d="M54.1868 42.5386C51.4988 42.9226 47.2322 44.16 47.1042 44.5866C46.9335 45.056 60.2455 87.296 60.7148 87.7653C61.2268 88.2346 67.9682 85.632 70.3575 84.0106C73.1308 82.176 75.2642 79.36 75.9895 76.6293C77.3548 71.5946 74.9655 59.9466 70.9548 51.9253C67.3282 44.672 61.4828 41.3866 54.1868 42.5386Z" />
  <path d="M87.2535 124.715C84.6508 125.739 84.0535 126.293 84.0535 127.573C84.0535 129.323 85.5895 130.347 87.2535 129.707C88.9601 129.067 89.5575 128.085 89.6001 125.952C89.6001 123.989 89.3868 123.904 87.2535 124.715Z" />
  <path d="M152.32 121.088C150.827 122.581 149.973 125.525 150.485 127.275C150.656 128 151.339 128.939 151.979 129.408C152.96 130.133 153.429 130.219 154.752 129.877C155.989 129.579 156.501 129.109 157.312 127.616C158.379 125.568 158.592 122.667 157.739 121.557C156.245 119.637 153.984 119.424 152.32 121.088Z" />
  <path d="M76.8 8.53312C76.8 9.47178 78.9761 15.6585 79.6161 16.5971C80.2561 17.4931 80.5547 17.5785 82.4747 17.3651C83.6694 17.1945 86.1867 16.5545 88.0641 15.9571L91.5201 14.8051L90.2401 14.2505C89.5574 13.9518 86.2294 12.4585 82.9014 10.9651C79.5307 9.42912 76.8 8.36245 76.8 8.53312Z" />
  <path d="M240.853 33.3226C237.952 42.4106 238.08 42.8372 245.333 45.3972C252.501 47.9146 252.288 48.8106 247.381 37.4612C245.035 31.9999 243.072 27.4772 242.987 27.3919C242.901 27.3066 241.963 29.9946 240.853 33.3226Z" />
</svg>