<svg width="256" height="71" viewBox="0 0 256 71"
  xmlns="http://www.w3.org/2000/svg">
  <path d="M117.142 7.67995L113.876 8.03305L114.052 35.5751L114.317 63.1172H119.172H124.028L124.292 36.1931C124.469 11.6524 124.381 9.18064 122.968 8.12133C122.174 7.59167 121.291 7.15029 121.026 7.23857C120.761 7.32685 118.996 7.5034 117.142 7.67995Z" />
  <path d="M55.2607 12.8882C52.171 15.8895 54.5545 22.0688 58.7917 22.0688C63.1173 22.0688 65.589 16.3309 62.6759 12.8882C61.2635 11.0344 57.0262 11.1226 55.2607 12.8882Z" />
  <path d="M134.444 12.5351C132.149 15.5365 132.59 19.5089 135.415 21.3627C137.181 22.5103 140.094 22.0689 141.506 20.4799C143.272 18.5379 143.448 14.0358 141.948 12.5351C140.535 11.1227 135.503 11.211 134.444 12.5351Z" />
  <path d="M203.476 17.5669C193.412 23.6579 192.883 33.8096 202.064 45.9034C207.184 52.7007 218.218 63.5586 219.984 63.5586C222.367 63.5586 224.309 61.1751 236.05 44.1379L247.879 26.9241L243.818 26.6593C237.109 26.2179 235.697 27.3655 227.31 39.9007L219.63 51.3765L215.658 47.5807C210.361 42.2841 204.8 33.8979 204.8 30.8965C204.8 29.5724 205.506 27.8951 206.389 27.1007C209.126 24.6289 212.039 25.2469 215.835 29.131C217.688 31.0731 219.719 32.662 220.248 32.662C220.778 32.662 222.279 31.6027 223.515 30.1903C226.251 27.2772 225.81 25.6882 220.955 21.0096C215.393 15.6248 208.684 14.3007 203.476 17.5669Z" />
  <path d="M160.927 27.0123C156.16 28.7778 150.51 34.8689 149.186 39.8123C145.39 53.9365 159.073 66.7365 173.639 62.5875C182.201 60.2041 188.999 50.2289 187.41 42.1958C185.026 29.6606 173.021 22.7751 160.927 27.0123ZM172.844 36.193C176.287 38.3116 178.67 43.3434 177.876 46.6978C177.081 49.8758 173.286 53.6716 170.284 54.2896C164.37 55.6137 158.014 50.9351 158.014 45.2854C158.014 36.7227 165.87 31.9558 172.844 36.193Z" />
  <path d="M9.9752 27.3655C7.50348 28.3365 7.0621 27.1889 17.5669 46.9627C25.6883 62.411 26.1297 63.1172 28.6897 63.1172C31.2497 63.1172 31.6911 62.411 40.3421 45.9034C45.2855 36.4579 49.0814 28.4248 48.9049 28.0717C48.1104 26.8358 41.0483 27.3655 39.018 28.7779C37.9587 29.4841 35.84 32.4855 34.4276 35.3986C32.9269 38.2234 30.9849 41.8427 30.1021 43.3434L28.4249 46.0799L24.2759 37.9586C21.9807 33.5448 19.2442 29.3958 18.1849 28.7779C15.4483 27.0124 12.1821 26.4827 9.9752 27.3655Z" />
  <path d="M55.3491 27.6303C53.9366 28.6014 53.8484 30.5434 54.0249 45.9034L54.2897 63.1172L58.6153 63.382C61.4401 63.5586 63.2056 63.2938 63.647 62.4993C64.0884 61.8814 64.4415 53.9365 64.4415 44.7558V28.2483L62.1463 27.3655C59.1449 26.2179 57.1146 26.2179 55.3491 27.6303Z" />
  <path d="M70.4442 27.1007C69.5614 27.2773 68.8552 28.0718 68.8552 28.6897C68.8552 29.3076 72.7394 37.2525 77.5063 46.3449C84.3035 59.4097 86.5104 62.8525 88.1876 63.2939C89.8649 63.7352 90.7476 63.2939 92.16 61.4401C95.0732 57.7325 109.903 28.4249 109.286 27.7187C108.932 27.3656 106.99 27.1007 105.048 27.1007C100.37 27.1007 98.1628 29.2194 92.9545 38.7532L88.8938 46.1683L84.8332 38.4001C79.8897 28.8663 75.7407 25.6001 70.4442 27.1007Z" />
  <path d="M135.062 27.1007C134.356 27.3655 133.473 28.0717 133.12 28.6014C132.149 29.9255 132.237 61.0869 133.208 62.4993C133.65 63.2938 135.415 63.5586 138.24 63.382L142.566 63.1172L142.83 45.3738L143.007 27.542L141.065 27.0124C138.681 26.3945 136.916 26.3945 135.062 27.1007Z" />
</svg>